<svg xmlns="http://www.w3.org/2000/svg" xmlns:xlink="http://www.w3.org/1999/xlink" width="1080" zoomAndPan="magnify" viewBox="0 0 810 809.999993" height="1080" preserveAspectRatio="xMidYMid meet" version="1.0"><rect x="-81" width="972" fill="#ffffff" y="-80.999999" height="971.999992" fill-opacity="1"/><rect x="-81" width="972" fill="#ffffff" y="-80.999999" height="971.999992" fill-opacity="1"/><path fill="#0a0a0a" d="M 592.011719 411.757812 L 410.097656 315.898438 C 409.960938 315.839844 409.882812 315.703125 409.882812 315.546875 L 409.882812 111.933594 C 409.882812 111.523438 410.429688 111.367188 410.644531 111.71875 L 592.558594 411.171875 C 592.773438 411.542969 592.382812 411.953125 592.011719 411.757812 Z M 410.15625 517.382812 L 410.15625 327.109375 C 410.15625 326.796875 410.488281 326.601562 410.761719 326.738281 L 591.503906 421.875 C 591.796875 422.03125 591.796875 422.460938 591.503906 422.617188 L 410.761719 517.734375 C 410.488281 517.890625 410.15625 517.695312 410.15625 517.382812 Z M 410.058594 698.300781 C 409.824219 698.632812 409.316406 698.476562 409.316406 698.066406 L 409.316406 541.933594 C 409.316406 541.777344 409.394531 541.640625 409.53125 541.5625 L 591.777344 445.664062 C 592.167969 445.46875 592.578125 445.898438 592.324219 446.25 C 578.261719 465.703125 422.1875 681.542969 410.058594 698.300781 Z M 400.683594 698.027344 C 400.683594 698.4375 400.175781 698.59375 399.941406 698.261719 C 387.8125 681.503906 231.738281 465.703125 217.675781 446.25 C 217.421875 445.898438 217.832031 445.46875 218.222656 445.664062 L 400.46875 541.5625 C 400.605469 541.640625 400.683594 541.777344 400.683594 541.933594 Z M 399.84375 327.109375 L 399.84375 517.382812 C 399.84375 517.695312 399.511719 517.890625 399.238281 517.734375 L 218.457031 422.617188 C 218.164062 422.460938 218.164062 422.03125 218.457031 421.875 L 399.238281 326.738281 C 399.511719 326.601562 399.84375 326.796875 399.84375 327.109375 Z M 217.441406 411.171875 L 399.355469 111.757812 C 399.570312 111.40625 400.117188 111.5625 400.117188 111.972656 L 400.117188 315.507812 C 400.117188 315.664062 400.039062 315.800781 399.902344 315.859375 L 217.988281 411.757812 C 217.617188 411.953125 217.226562 411.542969 217.441406 411.171875 Z M 405 0 C 181.328125 0 0 181.328125 0 405 C 0 628.671875 181.328125 810 405 810 C 628.671875 810 810 628.671875 810 405 C 810 181.328125 628.671875 0 405 0 " fill-opacity="1" fill-rule="nonzero"/></svg>