<?xml version="1.0" encoding="UTF-8"?>
<svg xmlns="http://www.w3.org/2000/svg" xmlns:xlink="http://www.w3.org/1999/xlink" viewBox="0 0 1920 1080">
  <defs>
    <style>
      .cls-1 {
        fill: url(#Degradado_sin_nombre_6-58);
      }

      .cls-2 {
        fill: url(#Degradado_sin_nombre_6-2);
      }

      .cls-3 {
        fill: url(#Degradado_sin_nombre_6);
      }

      .cls-4 {
        fill: url(#Degradado_sin_nombre_6-12);
      }

      .cls-5 {
        fill: url(#Degradado_sin_nombre_6-62);
      }

      .cls-6 {
        fill: url(#Degradado_sin_nombre_6-59);
      }

      .cls-7 {
        fill: url(#Degradado_sin_nombre_6-54);
      }

      .cls-8 {
        fill: url(#Degradado_sin_nombre_6-53);
      }

      .cls-9 {
        isolation: isolate;
      }

      .cls-10 {
        fill: url(#Degradado_sin_nombre_6-42);
      }

      .cls-11 {
        fill: url(#Degradado_sin_nombre_6-55);
      }

      .cls-12 {
        fill: url(#Degradado_sin_nombre_6-7);
      }

      .cls-13 {
        fill: url(#Degradado_sin_nombre_6-19);
      }

      .cls-14 {
        fill: url(#Degradado_sin_nombre_6-63);
      }

      .cls-15 {
        fill: url(#Degradado_sin_nombre_6-65);
      }

      .cls-16 {
        fill: url(#Degradado_sin_nombre_6-20);
      }

      .cls-17 {
        fill: url(#Degradado_sin_nombre_6-45);
      }

      .cls-18 {
        fill: url(#Degradado_sin_nombre_6-13);
      }

      .cls-19 {
        fill: url(#Degradado_sin_nombre_6-24);
      }

      .cls-20 {
        fill: url(#Degradado_sin_nombre_7);
      }

      .cls-20, .cls-21 {
        mix-blend-mode: screen;
      }

      .cls-22 {
        fill: url(#Degradado_sin_nombre_6-9);
      }

      .cls-23 {
        fill: url(#Degradado_sin_nombre_6-22);
      }

      .cls-24 {
        fill: url(#Degradado_sin_nombre_6-34);
      }

      .cls-25 {
        fill: url(#Degradado_sin_nombre_6-43);
      }

      .cls-26 {
        fill: url(#Degradado_sin_nombre_6-6);
      }

      .cls-27 {
        fill: url(#Degradado_sin_nombre_6-50);
      }

      .cls-28 {
        fill: url(#Degradado_sin_nombre_6-56);
      }

      .cls-29 {
        fill: url(#Degradado_sin_nombre_6-15);
      }

      .cls-21 {
        fill: url(#Degradado_sin_nombre_7-2);
      }

      .cls-30 {
        fill: url(#Degradado_sin_nombre_6-35);
      }

      .cls-31 {
        fill: url(#Degradado_sin_nombre_6-28);
      }

      .cls-32 {
        fill: url(#Degradado_sin_nombre_6-31);
      }

      .cls-33 {
        fill: url(#Degradado_sin_nombre_6-32);
      }

      .cls-34 {
        fill: url(#Degradado_sin_nombre_6-36);
      }

      .cls-35 {
        fill: url(#Degradado_sin_nombre_6-49);
      }

      .cls-36 {
        fill: url(#Degradado_sin_nombre_6-52);
      }

      .cls-37 {
        fill: url(#Degradado_sin_nombre_6-60);
      }

      .cls-38 {
        fill: url(#Degradado_sin_nombre_6-10);
      }

      .cls-39 {
        fill: url(#Degradado_sin_nombre_6-41);
      }

      .cls-40 {
        clip-path: url(#clippath);
      }

      .cls-41 {
        fill: url(#Degradado_sin_nombre_6-27);
      }

      .cls-42 {
        fill: url(#Degradado_sin_nombre_6-64);
      }

      .cls-43 {
        fill: none;
      }

      .cls-44 {
        fill: url(#Degradado_sin_nombre_6-29);
      }

      .cls-45 {
        fill: #37065d;
      }

      .cls-46 {
        fill: url(#Degradado_sin_nombre_6-26);
      }

      .cls-47 {
        fill: url(#Degradado_sin_nombre_6-3);
      }

      .cls-48 {
        fill: url(#Degradado_sin_nombre_6-21);
      }

      .cls-49 {
        fill: url(#Degradado_sin_nombre_6-48);
      }

      .cls-50 {
        fill: url(#Degradado_sin_nombre_6-16);
      }

      .cls-51 {
        fill: url(#Degradado_sin_nombre_6-25);
      }

      .cls-52 {
        fill: url(#Degradado_sin_nombre_6-66);
      }

      .cls-53 {
        fill: url(#Degradado_sin_nombre_6-57);
      }

      .cls-54 {
        fill: url(#Degradado_sin_nombre_6-14);
      }

      .cls-55 {
        fill: url(#Degradado_sin_nombre_6-18);
      }

      .cls-56 {
        fill: url(#Degradado_sin_nombre_6-61);
      }

      .cls-57 {
        fill: url(#Degradado_sin_nombre_6-39);
      }

      .cls-58 {
        fill: url(#Degradado_sin_nombre_6-33);
      }

      .cls-59 {
        fill: url(#Degradado_sin_nombre_6-40);
      }

      .cls-60 {
        fill: url(#Degradado_sin_nombre_6-30);
      }

      .cls-61 {
        fill: url(#Degradado_sin_nombre_6-4);
      }

      .cls-62 {
        fill: url(#Degradado_sin_nombre_6-51);
      }

      .cls-63 {
        fill: url(#Degradado_sin_nombre_6-17);
      }

      .cls-64 {
        fill: url(#Degradado_sin_nombre_6-37);
      }

      .cls-65 {
        fill: url(#Degradado_sin_nombre_6-47);
      }

      .cls-66 {
        fill: url(#Degradado_sin_nombre_6-44);
      }

      .cls-67 {
        fill: url(#Degradado_sin_nombre_6-46);
      }

      .cls-68 {
        fill: url(#Degradado_sin_nombre_6-11);
      }

      .cls-69 {
        fill: url(#Degradado_sin_nombre_6-38);
      }

      .cls-70 {
        fill: url(#Degradado_sin_nombre_6-23);
      }

      .cls-71 {
        fill: url(#Degradado_sin_nombre_6-5);
      }

      .cls-72 {
        fill: url(#Degradado_sin_nombre_6-8);
      }
    </style>
    <clipPath id="clippath">
      <rect class="cls-43" x="-26.57" y="-88" width="1977" height="1318"/>
    </clipPath>
    <radialGradient id="Degradado_sin_nombre_7" data-name="Degradado sin nombre 7" cx="-342.26" cy="1170.96" fx="-342.26" fy="1170.96" r="1091.27" gradientUnits="userSpaceOnUse">
      <stop offset="0" stop-color="#3692de"/>
      <stop offset=".03" stop-color="#3186cc"/>
      <stop offset=".12" stop-color="#26679c"/>
      <stop offset=".22" stop-color="#1b4b72"/>
      <stop offset=".32" stop-color="#13344f"/>
      <stop offset=".43" stop-color="#0c2132"/>
      <stop offset=".54" stop-color="#06121c"/>
      <stop offset=".67" stop-color="#02080c"/>
      <stop offset=".81" stop-color="#000102"/>
      <stop offset="1" stop-color="#000"/>
    </radialGradient>
    <radialGradient id="Degradado_sin_nombre_7-2" data-name="Degradado sin nombre 7" cx="2202.21" cy="-258.78" fx="2202.21" fy="-258.78" r="1356.78" xlink:href="#Degradado_sin_nombre_7"/>
    <linearGradient id="Degradado_sin_nombre_6" data-name="Degradado sin nombre 6" x1="255.34" y1="-229.46" x2="1475.08" y2="235.12" gradientUnits="userSpaceOnUse">
      <stop offset="0" stop-color="#000f55"/>
      <stop offset=".56" stop-color="#43a9ff"/>
      <stop offset="1" stop-color="#000f55"/>
    </linearGradient>
    <linearGradient id="Degradado_sin_nombre_6-2" data-name="Degradado sin nombre 6" x1="248.94" y1="-251.07" x2="1497.69" y2="224.57" xlink:href="#Degradado_sin_nombre_6"/>
    <linearGradient id="Degradado_sin_nombre_6-3" data-name="Degradado sin nombre 6" x1="241.33" y1="-273.14" x2="1520.32" y2="214.02" xlink:href="#Degradado_sin_nombre_6"/>
    <linearGradient id="Degradado_sin_nombre_6-4" data-name="Degradado sin nombre 6" x1="233.71" y1="-295.21" x2="1542.96" y2="203.47" xlink:href="#Degradado_sin_nombre_6"/>
    <linearGradient id="Degradado_sin_nombre_6-5" data-name="Degradado sin nombre 6" x1="226.1" y1="-317.28" x2="1565.63" y2="192.93" xlink:href="#Degradado_sin_nombre_6"/>
    <linearGradient id="Degradado_sin_nombre_6-6" data-name="Degradado sin nombre 6" x1="218.49" y1="-339.35" x2="1588.32" y2="182.41" xlink:href="#Degradado_sin_nombre_6"/>
    <linearGradient id="Degradado_sin_nombre_6-7" data-name="Degradado sin nombre 6" x1="210.87" y1="-361.42" x2="1611.07" y2="171.9" xlink:href="#Degradado_sin_nombre_6"/>
    <linearGradient id="Degradado_sin_nombre_6-8" data-name="Degradado sin nombre 6" x1="203.26" y1="-383.49" x2="1633.85" y2="161.41" xlink:href="#Degradado_sin_nombre_6"/>
    <linearGradient id="Degradado_sin_nombre_6-9" data-name="Degradado sin nombre 6" x1="195.65" y1="-405.56" x2="1656.66" y2="150.93" xlink:href="#Degradado_sin_nombre_6"/>
    <linearGradient id="Degradado_sin_nombre_6-10" data-name="Degradado sin nombre 6" x1="188.03" y1="-427.63" x2="1679.44" y2="140.43" xlink:href="#Degradado_sin_nombre_6"/>
    <linearGradient id="Degradado_sin_nombre_6-11" data-name="Degradado sin nombre 6" x1="180.42" y1="-449.7" x2="1702.23" y2="129.94" xlink:href="#Degradado_sin_nombre_6"/>
    <linearGradient id="Degradado_sin_nombre_6-12" data-name="Degradado sin nombre 6" x1="172.81" y1="-471.76" x2="1724.99" y2="119.45" xlink:href="#Degradado_sin_nombre_6"/>
    <linearGradient id="Degradado_sin_nombre_6-13" data-name="Degradado sin nombre 6" x1="165.2" y1="-493.83" x2="1747.75" y2="108.94" xlink:href="#Degradado_sin_nombre_6"/>
    <linearGradient id="Degradado_sin_nombre_6-14" data-name="Degradado sin nombre 6" x1="157.58" y1="-515.9" x2="1770.59" y2="98.47" xlink:href="#Degradado_sin_nombre_6"/>
    <linearGradient id="Degradado_sin_nombre_6-15" data-name="Degradado sin nombre 6" x1="149.97" y1="-537.97" x2="1793.56" y2="88.06" xlink:href="#Degradado_sin_nombre_6"/>
    <linearGradient id="Degradado_sin_nombre_6-16" data-name="Degradado sin nombre 6" x1="138.95" y1="-551.11" x2="1813.21" y2="86.59" xlink:href="#Degradado_sin_nombre_6"/>
    <linearGradient id="Degradado_sin_nombre_6-17" data-name="Degradado sin nombre 6" x1="124" y1="-553.92" x2="1829.21" y2="95.58" xlink:href="#Degradado_sin_nombre_6"/>
    <linearGradient id="Degradado_sin_nombre_6-18" data-name="Degradado sin nombre 6" x1="109.03" y1="-556.68" x2="1845.35" y2="104.66" xlink:href="#Degradado_sin_nombre_6"/>
    <linearGradient id="Degradado_sin_nombre_6-19" data-name="Degradado sin nombre 6" x1="94.04" y1="-559.37" x2="1861.66" y2="113.89" xlink:href="#Degradado_sin_nombre_6"/>
    <linearGradient id="Degradado_sin_nombre_6-20" data-name="Degradado sin nombre 6" x1="79.04" y1="-562.06" x2="1877.98" y2="123.13" xlink:href="#Degradado_sin_nombre_6"/>
    <linearGradient id="Degradado_sin_nombre_6-21" data-name="Degradado sin nombre 6" x1="64.06" y1="-564.75" x2="1895.51" y2="132.83" xlink:href="#Degradado_sin_nombre_6"/>
    <linearGradient id="Degradado_sin_nombre_6-22" data-name="Degradado sin nombre 6" x1="49" y1="-567.28" x2="1914.28" y2="143.19" xlink:href="#Degradado_sin_nombre_6"/>
    <linearGradient id="Degradado_sin_nombre_6-23" data-name="Degradado sin nombre 6" x1="760.83" y1="1580.45" x2="2369.01" y2="1938.29" xlink:href="#Degradado_sin_nombre_6"/>
    <linearGradient id="Degradado_sin_nombre_6-24" data-name="Degradado sin nombre 6" x1="745.39" y1="1557.17" x2="2364.36" y2="1917.41" xlink:href="#Degradado_sin_nombre_6"/>
    <linearGradient id="Degradado_sin_nombre_6-25" data-name="Degradado sin nombre 6" x1="729.78" y1="1533.84" x2="2359.71" y2="1896.52" xlink:href="#Degradado_sin_nombre_6"/>
    <linearGradient id="Degradado_sin_nombre_6-26" data-name="Degradado sin nombre 6" x1="714.04" y1="1510.49" x2="2355.06" y2="1875.64" xlink:href="#Degradado_sin_nombre_6"/>
    <linearGradient id="Degradado_sin_nombre_6-27" data-name="Degradado sin nombre 6" x1="698.19" y1="1487.08" x2="2350.41" y2="1854.73" xlink:href="#Degradado_sin_nombre_6"/>
    <linearGradient id="Degradado_sin_nombre_6-28" data-name="Degradado sin nombre 6" x1="682.24" y1="1463.67" x2="2345.77" y2="1833.82" xlink:href="#Degradado_sin_nombre_6"/>
    <linearGradient id="Degradado_sin_nombre_6-29" data-name="Degradado sin nombre 6" x1="666.2" y1="1440.23" x2="2341.12" y2="1812.93" xlink:href="#Degradado_sin_nombre_6"/>
    <linearGradient id="Degradado_sin_nombre_6-30" data-name="Degradado sin nombre 6" x1="650.08" y1="1416.78" x2="2336.47" y2="1792.02" xlink:href="#Degradado_sin_nombre_6"/>
    <linearGradient id="Degradado_sin_nombre_6-31" data-name="Degradado sin nombre 6" x1="633.89" y1="1393.31" x2="2331.82" y2="1771.12" xlink:href="#Degradado_sin_nombre_6"/>
    <linearGradient id="Degradado_sin_nombre_6-32" data-name="Degradado sin nombre 6" x1="617.65" y1="1369.81" x2="2327.18" y2="1750.2" xlink:href="#Degradado_sin_nombre_6"/>
    <linearGradient id="Degradado_sin_nombre_6-33" data-name="Degradado sin nombre 6" x1="601.35" y1="1346.3" x2="2322.53" y2="1729.29" xlink:href="#Degradado_sin_nombre_6"/>
    <linearGradient id="Degradado_sin_nombre_6-34" data-name="Degradado sin nombre 6" x1="584.54" y1="1322.67" x2="2317.89" y2="1708.36" xlink:href="#Degradado_sin_nombre_6"/>
    <linearGradient id="Degradado_sin_nombre_6-35" data-name="Degradado sin nombre 6" x1="568.61" y1="1299.23" x2="2313.25" y2="1687.43" xlink:href="#Degradado_sin_nombre_6"/>
    <linearGradient id="Degradado_sin_nombre_6-36" data-name="Degradado sin nombre 6" x1="551.86" y1="1275.6" x2="2308.61" y2="1666.49" xlink:href="#Degradado_sin_nombre_6"/>
    <linearGradient id="Degradado_sin_nombre_6-37" data-name="Degradado sin nombre 6" x1="535.63" y1="1252.07" x2="2303.97" y2="1645.55" xlink:href="#Degradado_sin_nombre_6"/>
    <linearGradient id="Degradado_sin_nombre_6-38" data-name="Degradado sin nombre 6" x1="519.14" y1="1228.48" x2="2299.32" y2="1624.59" xlink:href="#Degradado_sin_nombre_6"/>
    <linearGradient id="Degradado_sin_nombre_6-39" data-name="Degradado sin nombre 6" x1="502.56" y1="1204.86" x2="2294.68" y2="1603.63" xlink:href="#Degradado_sin_nombre_6"/>
    <linearGradient id="Degradado_sin_nombre_6-40" data-name="Degradado sin nombre 6" x1="485.95" y1="1181.21" x2="2290.05" y2="1582.65" xlink:href="#Degradado_sin_nombre_6"/>
    <linearGradient id="Degradado_sin_nombre_6-41" data-name="Degradado sin nombre 6" x1="468.9" y1="1157.47" x2="2285.42" y2="1561.66" xlink:href="#Degradado_sin_nombre_6"/>
    <linearGradient id="Degradado_sin_nombre_6-42" data-name="Degradado sin nombre 6" x1="452.28" y1="1133.79" x2="2280.8" y2="1540.66" xlink:href="#Degradado_sin_nombre_6"/>
    <linearGradient id="Degradado_sin_nombre_6-43" data-name="Degradado sin nombre 6" x1="435.8" y1="1110.12" x2="2276.18" y2="1519.63" xlink:href="#Degradado_sin_nombre_6"/>
    <linearGradient id="Degradado_sin_nombre_6-44" data-name="Degradado sin nombre 6" x1="419.1" y1="1086.4" x2="2271.56" y2="1498.6" xlink:href="#Degradado_sin_nombre_6"/>
    <linearGradient id="Degradado_sin_nombre_6-45" data-name="Degradado sin nombre 6" x1="801.33" y1="751.79" x2="103.09" y2="990.25" xlink:href="#Degradado_sin_nombre_6"/>
    <linearGradient id="Degradado_sin_nombre_6-46" data-name="Degradado sin nombre 6" x1="807.09" y1="762.85" x2="92.36" y2="1006.94" xlink:href="#Degradado_sin_nombre_6"/>
    <linearGradient id="Degradado_sin_nombre_6-47" data-name="Degradado sin nombre 6" x1="812.86" y1="773.9" x2="81.61" y2="1023.63" xlink:href="#Degradado_sin_nombre_6"/>
    <linearGradient id="Degradado_sin_nombre_6-48" data-name="Degradado sin nombre 6" x1="818.63" y1="784.95" x2="70.84" y2="1040.33" xlink:href="#Degradado_sin_nombre_6"/>
    <linearGradient id="Degradado_sin_nombre_6-49" data-name="Degradado sin nombre 6" x1="824.4" y1="796" x2="60.05" y2="1057.03" xlink:href="#Degradado_sin_nombre_6"/>
    <linearGradient id="Degradado_sin_nombre_6-50" data-name="Degradado sin nombre 6" x1="830.17" y1="807.05" x2="49.25" y2="1073.74" xlink:href="#Degradado_sin_nombre_6"/>
    <linearGradient id="Degradado_sin_nombre_6-51" data-name="Degradado sin nombre 6" x1="835.95" y1="818.1" x2="38.43" y2="1090.46" xlink:href="#Degradado_sin_nombre_6"/>
    <linearGradient id="Degradado_sin_nombre_6-52" data-name="Degradado sin nombre 6" x1="841.72" y1="829.15" x2="27.6" y2="1107.18" xlink:href="#Degradado_sin_nombre_6"/>
    <linearGradient id="Degradado_sin_nombre_6-53" data-name="Degradado sin nombre 6" x1="847.49" y1="840.2" x2="16.76" y2="1123.9" xlink:href="#Degradado_sin_nombre_6"/>
    <linearGradient id="Degradado_sin_nombre_6-54" data-name="Degradado sin nombre 6" x1="853.26" y1="851.25" x2="5.9" y2="1140.63" xlink:href="#Degradado_sin_nombre_6"/>
    <linearGradient id="Degradado_sin_nombre_6-55" data-name="Degradado sin nombre 6" x1="859.03" y1="862.31" x2="-4.96" y2="1157.36" xlink:href="#Degradado_sin_nombre_6"/>
    <linearGradient id="Degradado_sin_nombre_6-56" data-name="Degradado sin nombre 6" x1="864.8" y1="873.36" x2="-15.83" y2="1174.09" xlink:href="#Degradado_sin_nombre_6"/>
    <linearGradient id="Degradado_sin_nombre_6-57" data-name="Degradado sin nombre 6" x1="870.57" y1="884.41" x2="-26.7" y2="1190.83" xlink:href="#Degradado_sin_nombre_6"/>
    <linearGradient id="Degradado_sin_nombre_6-58" data-name="Degradado sin nombre 6" x1="876.34" y1="895.46" x2="-37.56" y2="1207.56" xlink:href="#Degradado_sin_nombre_6"/>
    <linearGradient id="Degradado_sin_nombre_6-59" data-name="Degradado sin nombre 6" x1="882.11" y1="906.51" x2="-48.43" y2="1224.29" xlink:href="#Degradado_sin_nombre_6"/>
    <linearGradient id="Degradado_sin_nombre_6-60" data-name="Degradado sin nombre 6" x1="887.88" y1="917.56" x2="-59.3" y2="1241.02" xlink:href="#Degradado_sin_nombre_6"/>
    <linearGradient id="Degradado_sin_nombre_6-61" data-name="Degradado sin nombre 6" x1="893.65" y1="928.61" x2="-70.16" y2="1257.75" xlink:href="#Degradado_sin_nombre_6"/>
    <linearGradient id="Degradado_sin_nombre_6-62" data-name="Degradado sin nombre 6" x1="899.42" y1="939.66" x2="-81.03" y2="1274.49" xlink:href="#Degradado_sin_nombre_6"/>
    <linearGradient id="Degradado_sin_nombre_6-63" data-name="Degradado sin nombre 6" x1="905.19" y1="950.71" x2="-91.9" y2="1291.22" xlink:href="#Degradado_sin_nombre_6"/>
    <linearGradient id="Degradado_sin_nombre_6-64" data-name="Degradado sin nombre 6" x1="910.96" y1="961.76" x2="-102.76" y2="1307.95" xlink:href="#Degradado_sin_nombre_6"/>
    <linearGradient id="Degradado_sin_nombre_6-65" data-name="Degradado sin nombre 6" x1="916.73" y1="972.81" x2="-113.63" y2="1324.68" xlink:href="#Degradado_sin_nombre_6"/>
    <linearGradient id="Degradado_sin_nombre_6-66" data-name="Degradado sin nombre 6" x1="922.49" y1="983.87" x2="-124.49" y2="1341.42" xlink:href="#Degradado_sin_nombre_6"/>
  </defs>
  <g class="cls-9">
    <g id="Layer_1" data-name="Layer 1">
      <g class="cls-40">
        <rect class="cls-45" x="-26.57" y="-88" width="1977" height="1318"/>
        <circle class="cls-20" cx="-342.26" cy="1170.96" r="1091.27"/>
        <circle class="cls-21" cx="2202.21" cy="-258.78" r="1356.78"/>
        <g>
          <path class="cls-3" d="m-79.45,653.85c31.22-88.8,63.89-178.73,117.71-256.75,49.14-71.23,118.69-132.23,202.81-157.32,43.82-13.07,89.01-14.2,133.83-5.78,45.5,8.55,89.01,24.84,133.15,38.36,42.43,12.99,85.71,23.06,130.34,22.45,42.03-.58,83.91-9.38,122.69-25.56,71.71-29.91,123.62-84.88,169.42-145.85,42.9-57.1,81.5-119.4,135.95-166.55,27.07-23.44,58.14-42.14,92.57-52.43,46.99-14.05,96.63-11.89,145.03-9.61,45.86,2.16,92.34,4.57,137.51-5.46,37.23-8.26,72.54-24.07,104.25-45.15,64.96-43.18,114.92-107.35,145.7-178.64,36.82-85.28,48.52-179.09,48.27-271.33-.06-23.37-.92-46.72-2.3-70.04,0-.16-.26-.16-.25,0,10.47,177.26-15.24,374.7-159.47,495.75-31.23,26.21-66.89,47.36-105.55,60.54-43.63,14.87-89.17,17.07-134.89,15.52-47.16-1.6-94.74-6.37-141.72.28-36.72,5.19-71.24,18.42-101.9,39.24-56.98,38.68-97.24,96.85-137.04,151.83-44.29,61.17-90.35,123.6-156.78,162.34-39.32,22.93-83.38,37.46-128.57,42.74-46.39,5.42-92.22-.55-137.09-12.73-85.18-23.12-168.78-63.13-259.18-48.08-80.16,13.35-151.25,61.97-203.87,122.43-59.07,67.87-96.38,151.64-127.6,235.16-8.01,21.43-15.66,42.99-23.25,64.57-.05.15.19.22.24.07h0Z"/>
          <path class="cls-2" d="m-80.09,613.49C-20.8,460.78,61.46,288.32,230.3,234.89c40.91-12.95,83.93-16.27,126.33-9.67,42.7,6.65,83.51,21.59,124.02,36.11s81.27,29.03,123.92,35.37c42.62,6.34,86.64,4.39,128.31-6.8,39.5-10.6,76.4-29.63,108.32-55.16,34.75-27.79,63.05-62.5,89.94-97.68,52.39-68.53,103.6-142.59,177.91-189.39,37.93-23.89,80.06-37.24,124.45-42.38,46.65-5.41,93.69-3.26,140.53-4.76,41.07-1.31,81.97-5.89,120.8-19.96,32.94-11.93,63.71-29.44,91.36-50.91,57.28-44.49,100.54-105.08,127.44-172.17,32.85-81.95,43.23-171.11,42.92-258.85-.08-22.09-.87-44.17-2.12-66.23,0-.16-.26-.16-.25,0,9.55,167.76-12.42,352.99-141.31,474.11-26.89,25.26-57.47,46.72-90.87,62.48-37.51,17.7-77.44,26.65-118.7,29.76-87.97,6.64-179.64-7.15-262.27,31.17-74.09,34.37-129.12,100.05-177.46,163.77-27.75,36.59-54.5,74.23-86.33,107.47s-68.72,60.29-111.28,77.43c-42.66,17.18-89.23,23.77-135.04,20.68-44.42-2.99-87.06-15.96-128.84-30.61-40.83-14.31-81.3-30.31-123.66-39.61-38.78-8.52-78.44-10.1-117.49-2.32C98.14,259.18,3.77,411.77-56.08,553.28c-8.42,19.91-16.42,39.99-24.25,60.14-.06.15.18.22.24.07h0Z"/>
          <path class="cls-47" d="m-80.75,573.15C-17.94,425.7,75.91,261.26,244.7,221.89c42.11-9.82,85.31-9.4,127.43.11,41.53,9.37,81.04,25.76,120.53,41.3s80.64,31.09,123.24,38.26,84.62,6.47,125.57-3.87c39.68-10.01,76.29-29.6,107.7-55.69,33.62-27.93,60.75-62.47,87.05-97.12s54.24-72.79,86.29-105.02c29.33-29.49,61.41-56.96,97.21-78.3,37.38-22.29,78.17-36.3,121.03-43.36,47.23-7.78,95.17-8.8,142.83-12.22,41.71-2.99,83.79-7.82,123.51-21.56,33.52-11.59,64.98-28.81,93.3-50.11,57.64-43.36,101.8-102.97,128.99-169.59,33.21-81.35,43.94-170.03,43.89-257.35-.01-22.26-.75-44.52-1.96-66.74,0-.16-.26-.16-.25,0,9.11,166.57-12.91,350.7-142.33,469.74-27.16,24.99-57.98,46.09-91.5,61.61-38.84,17.99-80.33,26.66-122.74,31.09-87.39,9.12-178.4,3.37-260.36,40.24-73.93,33.26-134.37,92.97-183.6,156.08-54.45,69.8-104.29,147.18-188.4,184.11-42.8,18.79-90.17,25.13-136.6,21.48-43.98-3.46-86.09-16.49-127.17-31.99-77.18-29.12-153.97-66.09-238.73-57.25C116.59,232.73,11.06,376.86-54.25,513.55c-9.37,19.61-18.2,39.48-26.72,59.47-.06.15.15.27.22.13h0Z"/>
          <path class="cls-61" d="m-81.4,532.79C-14.17,388.12,93.84,230.54,265.51,208.68c42.9-5.46,85.67-.25,126.86,12.44,41.22,12.7,80.35,31.1,119.99,47.89,77.17,32.68,160.58,57.25,244.25,34.85,39.39-10.55,75.14-31.54,105.38-58.68,32.49-29.15,58.49-64.36,84.48-99.19,26.4-35.38,52.97-71.04,85.76-100.85,30.64-27.86,64.74-52.85,101.2-72.54,37.97-20.51,78.74-34.19,121.14-41.97,46.99-8.62,94.65-12.32,142.05-17.84,42.17-4.9,84.81-11.05,125.11-24.89,33.57-11.53,65.17-28.45,93.75-49.47,57.95-42.63,102.94-101.52,130.3-167.94,33.32-80.87,44.16-169.13,44.27-256.05.03-21.88-.65-43.75-1.8-65.6,0-.16-.26-.16-.25,0,8.7,166.09-13.71,349.49-144.57,466.57-27.88,24.94-59.45,45.86-93.62,61.15-38.23,17.1-79.3,25.87-120.59,31.8-87.69,12.61-179.04,12.52-261.83,47.62-74.25,31.48-139.01,84.74-188.88,147.58-53.97,68.01-100.34,146.61-181.72,185.27-84.99,40.37-179.41,22.44-263.13-11.25-75.8-30.51-150.52-72.02-234.47-71.4-164.21,1.23-281.83,136.73-353.08,270.58-9.78,18.37-18.95,37.05-27.72,55.92-.07.14.15.27.22.13h0Z"/>
          <path class="cls-71" d="m-82.04,492.43C-10.48,350.55,110.65,203.47,282.7,197.49c88.87-3.09,165.96,40.38,244.4,75.92s159.05,60.1,241.48,37.48,134.19-89.95,182.31-155.78c25.34-34.67,51-69.96,83.13-98.76,31.21-27.98,68.15-51.06,105.54-69.86,38.54-19.38,79.61-33.35,121.87-41.95,45.58-9.27,91.85-14.83,137.79-21.9,80.47-12.38,160.04-29.59,227.67-77.24,58.9-41.5,105.77-99.61,133.95-165.91,34.41-80.98,45.64-169.88,45.96-257.28.08-21.73-.55-43.45-1.63-65.14,0-.16-.26-.16-.25,0,4.48,89.75.72,181.23-24.88,267.9-22.73,76.95-64.02,146.26-125.39,198.58-29.22,24.91-62.19,45.5-97.64,60.29-38.77,16.17-80.33,25.3-121.55,32.6-87.82,15.55-178.84,20.3-262.2,54.43-36.18,14.81-70.22,34.23-102.32,56.47-34.33,23.77-62.77,52.61-88.52,85.36-52.67,66.97-96.86,145.77-176.74,184.07-84.64,40.59-179.75,19.36-261.93-16.24-73.73-31.94-145.51-75.8-227.31-82.49-162.71-13.32-291.62,109.34-368.85,239.6-10.59,17.87-20.47,36.14-29.82,54.68-.07.14.14.27.22.13h0Z"/>
          <path class="cls-26" d="m-82.69,452.07C-6.09,311.56,128.8,176.82,301.2,187.58c88,5.5,163.04,53.57,240.44,90.78,73.47,35.31,157.5,62.54,238.94,39.56,82.01-23.14,131.75-93.17,178.76-159.03,24.47-34.27,49.68-69,81.55-96.87,31.82-27.83,71.07-48.33,109.52-65.42,39.83-17.7,81.66-30.68,124.34-39.45,45.05-9.26,90.66-15.71,135.84-24.3,79.61-15.14,160.64-34.54,228.47-80.85,60.52-41.33,109.39-99.71,138.33-167.13,34.23-79.75,45.52-167.63,46.12-253.82.15-21.93-.41-43.85-1.45-65.76,0-.16-.26-.16-.25,0,4.24,89.44.24,180.62-25.67,266.88-23.26,77.43-65.94,146.31-128.54,198.04-64.3,53.13-142.25,78.36-222.74,95.5-87.14,18.56-177.24,25.91-261.25,57.1-36.72,13.63-72.14,31.04-105.42,51.67-35.23,21.84-63.43,50.85-88.82,83.37-51.85,66.43-93.72,146.15-172.04,185.47-83.88,42.11-179.72,18.98-260.67-18.17-73.72-33.83-144.04-81.17-225.44-94.43-159.72-26.01-298.4,80.73-381.84,207.22-11.56,17.52-22.25,35.58-32.3,54-.08.14.14.27.22.13h0Z"/>
          <path class="cls-12" d="m-83.34,411.71C-42.02,341.34,12.54,277.89,81.62,233.58c73.38-47.07,160.89-69.25,247.38-52.79,83.63,15.92,154.47,66.56,229.24,104.15,73.18,36.79,159.82,65.05,241,37.9,80.28-26.85,126.26-99.77,172.38-165.51,23.63-33.69,48.67-67.64,80.63-93.98,33.03-27.21,74.45-44.81,114.21-59.74,83.8-31.47,172.32-41,259.2-60.23,79.05-17.49,160.57-40.38,228.29-86.3,60.44-40.98,109.92-98.41,139.39-165.38,34.66-78.77,45.97-166.39,46.9-251.79.24-22.15-.27-44.29-1.26-66.41,0-.16-.26-.16-.25,0,4.01,89.75-.31,181.26-26.99,267.61-23.73,76.78-67.43,144.27-130.03,195.05-64.13,52.01-142.8,79.22-221.99,98.97-86.74,21.63-176.51,29.91-261.8,57.28-37.4,12-74.39,26.95-108.84,45.91-35.58,19.59-63.71,47.77-88.66,79.48-51.69,65.68-90.52,146.49-165.94,189.02-81.68,46.07-177.84,24.4-258.08-13.32-73.93-34.76-141.96-85.03-221.47-106.93-79.59-21.92-163.8-11.26-237.1,25.96C51.19,246.39-4.79,298.22-48.72,358.29c-12.54,17.14-24.08,34.98-34.83,53.3-.08.14.13.26.22.13h0Z"/>
          <path class="cls-72" d="m-83.98,371.35C-40.83,302.87,17.18,243.34,88.97,204.97c79.54-42.51,171.43-55.24,258.61-30.14,81.8,23.55,150.51,77.05,224.99,116.19,71.82,37.74,158.55,66.95,238.81,38.66,77.93-27.47,121.97-99.73,166.04-164.56,23.1-33.98,47.66-68.11,79.16-94.89,33.92-28.85,77.02-44.34,118.89-57.78,85.76-27.54,175.34-35.97,262.57-57.11,78.17-18.95,158.79-45.14,226.41-89.75,61.75-40.74,113.19-97.85,144.06-165.33,35.73-78.13,47.21-166.26,48.45-251.43.33-22.38-.12-44.76-1.06-67.11,0-.16-.26-.16-.25,0,3.78,90.09-.88,182-28.37,268.48-24.57,77.28-70.46,144.28-134.27,194.49-65.13,51.24-145.52,80.98-224.74,102.61-86.13,23.51-175.38,31.72-261.42,55.53-39.17,10.84-79.54,23.6-115.38,43.1-33.89,18.43-60.61,46.69-84,76.93-50.7,65.54-87.61,146.71-161.48,190.34-81.53,48.16-178.57,24.79-258.35-14.75-73.27-36.31-139.23-88.11-216.5-116.2-80.75-29.36-168.7-26.89-247.91,6.2C55.18,216.87-3.44,264.24-49.24,321.73c-12.6,15.82-24.18,32.39-34.96,49.49-.09.14.13.26.22.13h0Z"/>
          <path class="cls-22" d="m-84.63,330.99c45.07-66.83,106.54-122.52,180.86-154.84,83.33-36.24,176.37-39.59,261.9-8.68,80.33,29.03,147.4,84.59,221.25,126.04s159.34,72.74,240.86,44.16c78.54-27.54,121.63-101.75,164.97-167.4,22.56-34.17,46.76-68.39,77.96-95.31,33.93-29.27,76.32-42.68,118.88-54.19,86.47-23.39,176.14-29.95,262.94-51.44,79.57-19.7,160.15-49.63,229.31-94.26,62.83-40.55,116.06-97.1,148.61-164.74,37.42-77.79,49.17-167.07,50.76-252.53.42-22.63.04-45.25-.84-67.86,0-.16-.26-.16-.25,0,3.56,91.08-1.56,184.06-30.37,271.17-25.94,78.41-75.39,145.36-141.24,195.04-65.57,49.46-145.5,81.8-223.94,104.36-86.21,24.8-175.96,31.8-263.19,52.05-40.25,9.34-83.33,19.53-119.56,39.99-32.16,18.17-57.59,46.21-79.67,75.35-50.53,66.66-86.21,150.05-161.12,194.01-81.9,48.07-179.06,21.64-257.66-19.73-73.84-38.87-139.17-93.49-216.14-126.47-78.92-33.82-166.54-39.39-248.45-13.01C61.7,185.09.15,227.74-47.85,282.56c-13.38,15.28-25.64,31.47-36.99,48.3-.09.13.13.26.22.13h0Z"/>
          <path class="cls-38" d="m-85.27,290.63C-37.09,223.69,29.81,170.99,108.66,145.36c88.45-28.75,182.99-20.41,267.13,18.14,76.67,35.13,141.04,91.63,213.29,134.34,69.57,41.12,155.86,75.41,236.84,48.88,81-26.54,124.04-103.91,167.19-171.3,22.02-34.38,45.82-68.72,76.63-95.88,34.06-30.02,75.37-42.17,118.87-51.78,87.88-19.42,178.63-23.3,266.04-44.67,80.71-19.73,159.45-53.12,229.52-97.85,63.71-40.66,118.69-96.8,152.89-164.59,39.15-77.6,51.33-167.88,53.28-253.83.52-22.89.22-45.79-.61-68.67,0-.16-.26-.16-.25,0,3.32,92.14-2.27,186.27-32.48,274.07-27.02,78.54-79.37,144.99-145.88,194.18s-146.67,85.25-226.29,108.36c-85.89,24.93-175.77,29.85-263.42,46.11-40.12,7.44-83.64,14.89-119.56,35.19-31.58,17.85-56.58,45.53-78.12,74.26-51.15,68.22-85.55,155.01-162.11,199.93-82.38,48.33-180.04,19.15-257.67-24.15-73.52-41.01-137.58-97.52-212.84-135.5-76.96-38.84-164.02-53.42-248.68-34.67-72.14,15.98-137.8,54.27-188.9,107.45-14.15,14.73-27.09,30.54-39.02,47.11-.09.13.12.26.22.13h0Z"/>
          <path class="cls-68" d="m-85.92,250.26C-35.98,185.11,33.77,136.67,113.85,117.03c89.46-21.94,182.37-5.98,263.7,35.54,76.55,39.09,140.37,98.26,212.45,144.4,68.82,44.06,155.01,83.14,238.08,59.76,82.03-23.09,126.61-100.11,168.08-168.06,21.56-35.32,44.68-70.6,74.63-99.45,14.14-13.62,29.93-25.72,47.61-34.4,21.23-10.42,44.41-15.32,67.5-19.61,90.1-16.74,182.81-17.12,272.36-36.85,83.64-18.42,162.27-54.72,234.09-100.89,65.09-41.84,122.24-97.31,158.64-166.19,40.97-77.52,53.69-168.75,56.02-255.38.62-23.18.4-46.36-.36-69.54,0-.16-.26-.16-.25,0,3.06,93.27-3.02,188.66-34.71,277.19-28.16,78.68-83.49,144.75-150.39,193.84-68.35,50.14-147.51,89.29-229.1,112.2-88.11,24.75-180.69,26.36-270.84,39.52-40.84,5.96-84.12,11.94-119.45,34.77-31.07,20.07-55.39,49.24-76.49,79.22-48.58,69.04-82.84,155.79-160.5,198.24-84.41,46.14-182.55,11.35-258.8-34.63-72.66-43.82-135.51-102.34-209.43-144.13-76.08-43.01-162.81-64.78-250.04-52.17C74.34,120.87,6.71,154.67-46.03,205.12c-14.55,13.92-27.85,29.04-40.1,45.02-.1.13.12.25.22.13h0Z"/>
          <path class="cls-4" d="m-86.58,209.93c51.46-63.17,123.34-107.21,203.82-121.47,91.05-16.13,183.23,7.4,262.62,52.55,76.15,43.31,139.32,105.22,211.17,154.79,67.38,46.48,151.82,89.59,236.14,71.31,85.82-18.61,133.09-97.65,174.13-167.86,20.6-35.24,42.59-70.35,70.85-100.04,13.64-14.32,28.88-27.34,46.06-37.24,20.62-11.88,43.4-17.76,66.76-21.37,92.14-14.2,186.34-10.56,278.11-27.67,84.26-15.7,162.97-52.38,234.14-99.45,66.5-43.98,126.41-98.21,165.89-168.35,44.06-78.26,57.8-171.46,60.58-260.07.74-23.49.6-46.98-.09-70.47,0-.16-.25-.16-.25,0,2.78,94.51-3.42,192.29-37.42,281.44-30.28,79.4-88.63,145.49-156.76,195.02-69.5,50.53-146.79,92-230.3,113.65-90.95,23.58-186.33,20.91-279.17,31.12-40.66,4.47-80.94,10.38-115.07,34.56-30.69,21.74-54.52,52.03-75.25,83.04-47.04,70.38-81.36,158.55-161.19,198.83-85.32,43.05-182.59,4.42-256.89-43.27-72.59-46.59-134.64-107.66-207.45-153.86-75.16-47.68-161.62-77.28-251.41-71.21-71.68,4.84-140.73,33.42-195.16,80.27-16.05,13.81-30.66,29.13-44.02,45.54-.1.12.08.3.18.18h0Z"/>
          <path class="cls-18" d="m-87.23,169.57C-32.69,106.43,44.11,66.12,127.33,58.47c89.64-8.23,177.43,21.64,252.7,68.72s137.3,110.96,207.89,164c66.07,49.64,148.43,97.56,234.45,86.21,90.28-11.91,141.46-91.5,182.54-164.3,39.94-70.78,88.21-152.9,175.41-167.75,47.35-8.06,96.52-7.3,144.4-8.62,47.81-1.32,95.81-3.18,143.21-9.98,86.07-12.35,166.21-49.22,237.65-97.85,67.4-45.87,129.37-101.25,170.87-172.27,45.96-78.66,60.63-172.49,63.86-262.33.86-23.82.81-47.66.19-71.48,0-.16-.25-.16-.25,0,2.47,95.71-3.78,196.1-40.3,285.74-33.1,81.26-94.32,146.29-163.75,198.18-68.93,51.51-146.12,93.56-230.54,112.77-94.43,21.49-192.4,13.84-288.27,21.41-40.36,3.19-77.39,10.93-109.98,36.17-31.03,24.04-54.8,56.5-75.51,89.47-45.14,71.87-80.59,161.36-163.54,197.78-89.16,39.14-187.31-7.44-260.56-58.99-71.73-50.48-133.04-114.24-205.42-163.81-71.7-49.11-154.07-83.58-241.96-84.63-72.77-.88-145.1,23.46-202.25,68.58-16.61,13.11-31.75,27.89-45.58,43.9-.1.12.07.3.18.18h0Z"/>
          <path class="cls-54" d="m-87.88,129.21C-30.9,66.92,49.32,30.83,133.68,28.82c90.05-2.14,175.73,34.25,248.64,84.71,76.11,52.68,138.72,121.57,210.99,178.99,65.41,51.97,147.67,102.82,234.94,93.13,88.39-9.81,140.03-85.48,179.72-157.02,38.6-69.57,82.94-157.76,167.23-178.49,24.97-6.14,51.36-6.22,76.94-6.55,23.41-.3,46.83.09,70.24.42,50.4.72,100.85.91,151.04-4.41,87.3-9.26,167.92-43.75,239.85-93.3,67.77-46.68,130.84-103.71,174.24-174.26,49.3-80.15,65.61-175.67,69.39-268.44.98-24.18,1.03-48.39.5-72.58,0-.16-.25-.16-.25,0,2.18,98.59-4.44,203.57-45.37,294.75-35.71,79.55-97.06,143.29-165.35,195.98-69.89,53.94-149.72,96.83-237.3,112.6-97.69,17.6-196.91,4.26-295.28,10.22-39.57,2.4-74.28,14.44-104.56,40.36-29.88,25.58-52.72,58.62-72.74,92.17-44.69,74.87-82.31,169.08-171.75,200.08-89.86,31.15-184.27-19.03-254.62-71.94s-132.99-121.39-205.01-175.54c-69.36-52.15-149.22-92.48-236.76-100.07-75.01-6.51-151.96,14.24-212.46,59.32-15.96,11.89-30.58,25.37-44.01,40.04-.11.12.07.3.18.18h0Z"/>
          <path class="cls-29" d="m-88.52,88.84C-28.77,27.06,55.36-4.77,140.99-1.07c89.23,3.86,171.8,45.42,241.84,98.48,74.97,56.8,136.57,128.41,207.74,189.55,64.63,55.53,145.27,110.98,234.44,107.46,90.6-3.57,145.67-76.44,185.84-149.32,39.07-70.89,79.48-163.09,163.07-190.4,24.7-8.07,50.82-8.3,76.55-7.93,24.96.36,49.89,1.69,74.8,3.03,50.79,2.74,101.65,5.34,152.48,1.91,88.91-6,170.54-36.84,243.82-87.16,69.04-47.4,132.98-107.34,177.99-178.36,51.68-81.54,69.6-177.96,73.94-273.17,1.12-24.58,1.28-49.18.83-73.78,0-.16-.25-.16-.25,0,1.81,100.01-5.39,206.48-48.2,298.43-37.29,80.09-99.73,145.97-168.5,200.16-71.16,56.09-154.05,98.82-244.78,110.32-50.76,6.43-102.08,5.63-153.07,3.19-48.65-2.33-98.24-7.75-146.93-4.14-83.25,6.18-134.56,75.65-172.38,142.92-43.08,76.63-83.34,172.49-176.48,198.14-94.52,26.03-189.41-32.31-259.36-90-70.46-58.11-130.34-127.81-201.33-185.32C336.04,58.69,258.7,14.02,172.22,1.59,97.59-9.15,19.12,7.28-43.3,50.05c-16.45,11.27-31.54,24.29-45.4,38.61-.11.12.06.29.18.18h0Z"/>
          <path class="cls-50" d="m-89.17,48.48C-26.72-12.68,60.81-40.01,147.24-31.19c90.57,9.24,172.03,57.3,240.55,114.78,71.97,60.38,131.54,133.41,200.29,197.16,63.61,58.99,142.38,118.54,232.81,121.57,41.14,1.38,80.62-11.75,112.89-37.28,35.38-27.99,60.22-67.03,81.65-106.12,39.85-72.7,76.94-166.73,160.04-199.96,47.12-18.84,103.13-9.12,152.26-4.65,51.57,4.69,103.21,9.82,155.06,8.49,46.55-1.19,92.34-7.74,136.44-23.02,40.93-14.18,79.52-34.69,115.19-59.18,69.86-47.95,133.26-110.55,178.82-182.18,52.47-82.49,71.81-178.56,76.78-275.09,1.3-25.27,1.58-50.57,1.23-75.87,0-.16-.25-.16-.25,0,1.42,101.51-6.54,209.07-50.85,302-38.57,80.88-101.51,149.87-171.23,205.29-72.42,57.57-157.04,97.86-249.96,105.81-52.22,4.47-104.58,1.27-156.66-3.36-24.83-2.21-49.65-4.68-74.51-6.52-25.08-1.86-50.78-4.09-75.85-1.1-81.13,9.67-131.08,85.16-166.4,151.33-42.67,79.92-86.58,179.68-186.03,198.33-96.37,18.07-188.34-44.76-256.58-105.36-69.66-61.86-128.62-134.62-198.47-196.29C339.7,40.44,264.56-9.04,178.76-26.62,104-41.94,23.32-30.16-41.73,10.56c-17.25,10.8-33.08,23.52-47.61,37.75-.12.11.06.29.18.18h0Z"/>
          <path class="cls-63" d="m-89.81,8.12C-23.84-53.16,68.42-75.75,156.36-61.1c90.03,15,168.67,67.91,234.74,128.51,70.65,64.8,129.06,141.22,197,208.66,62.86,62.4,140.84,126.04,232.77,133.57,42.97,3.52,84.91-8.33,119.17-34.64,34.2-26.27,58.55-63.12,79.16-100.44,41.27-74.69,74.61-170.31,156.78-210.31,46.44-22.6,99.89-13.32,149.12-7.26,51.63,6.35,103.19,14.03,155.26,15.64,48.34,1.49,96.86-2.23,143.41-15.94,42.05-12.39,81.78-31.85,118.34-55.92,72.58-47.78,136.35-113.33,183.15-186.49,25.24-39.45,45.01-82.04,57.46-127.22,13.66-49.59,20.69-100.83,23.71-152.11,1.55-26.39,1.99-52.82,1.73-79.24,0-.16-.25-.16-.25,0,1,104.53-8.26,214.11-55.02,309.22-40.09,81.55-103.19,153.67-174.56,209.48-36.57,28.6-76.72,52.95-119.95,70.08-45.46,18.01-93.13,26.6-141.93,27.99-52.59,1.49-104.92-4.7-156.99-11.36-24.7-3.16-49.4-6.4-74.19-8.82s-49.23-4.52-73.5-.08c-79.17,14.5-127.1,93.52-160.58,159.53-41.88,82.56-89.32,184.35-193.04,197.04-98.4,12.04-188.59-55.15-255.69-119.06-68.94-65.68-126.88-141.8-195.54-207.77-62.58-60.12-135.26-113.96-220.25-136.73-75.2-20.15-158.72-13.04-226.84,25.86C-58.19-18.62-74.79-6.18-89.99,7.94c-.12.11.06.29.18.18h0Z"/>
          <path class="cls-55" d="m-90.46-32.24C-21.3-93.23,74.81-110.99,163.59-91.32c92.43,20.48,170.6,80.35,235.84,146.47,68.66,69.59,125.63,149.49,193.04,220.2,61.85,64.88,138.64,130.64,231.19,141.51,43.19,5.07,86.15-5.28,121.37-31.03,35.09-25.65,59.92-62.62,80.62-100.22,41.88-76.06,72.7-172.26,153.68-216.89,48.46-26.71,103.16-16.69,155.23-8.59,51.48,8.01,102.81,17.63,154.85,21.31,49.59,3.51,99.82,1.6,148.06-11.16,42.45-11.22,82.68-30.01,119.52-53.77,73.67-47.5,136.06-114.45,182.55-188.49,25.44-40.52,45.97-84.24,58.87-130.37,14.06-50.26,21.34-102.28,24.59-154.3,1.66-26.45,2.21-52.95,2.08-79.45,0-.16-.25-.16-.25,0,.52,106.56-9.9,216.98-57.48,313.86-40.63,82.72-102.62,157.59-175.58,213.84-36.42,28.07-76.57,51.54-119.78,67.48-46.38,17.12-95.04,24.02-144.38,23.65-54.49-.4-108.4-9.17-162.05-17.89-25.06-4.07-50.12-8.15-75.32-11.24s-51.1-4.96-76.1,1.14c-77.44,18.89-123.32,98.69-155.61,165.02-41.24,84.71-91.01,188.84-197.85,197.57-99.44,8.12-188.1-61.49-254.06-127.81-68.55-68.93-125.2-148.46-191.99-219.01C353.27,5.71,281.84-54.16,195.88-82.68c-76.3-25.31-163.45-22.94-235.33,14.76-18.48,9.69-35.55,21.7-51.19,35.49-.12.11.06.28.18.18h0Z"/>
          <path class="cls-13" d="m-91.11-72.6c71.76-60.14,170.45-73.26,259.34-49.75,92.72,24.52,169.45,88.36,233,157.77,67.14,73.34,122.49,156.37,188.26,230.85,61.31,69.42,137.59,140.59,232.34,156.89,42.64,7.34,86.15.42,122.84-23.03,36.36-23.24,62.36-59.12,83.41-96.08,44.93-78.89,72.43-179.42,154.17-230.19,19.48-12.1,41.25-19.69,64.14-21.58,29.95-2.47,60.2,3.67,89.54,8.96,52.71,9.5,105.02,21.5,158.28,27.74,50.71,5.94,102.57,6.6,152.65-4.42,42.32-9.31,82.68-26.34,119.69-48.76,76.41-46.27,138.96-114.3,185.79-189.87,25.95-41.86,47.01-86.93,60.86-134.25,15.05-51.42,22.64-105.07,26.25-158.44,1.83-27,2.54-54.05,2.54-81.1,0-.16-.25-.16-.25,0-.02,109.5-11.99,221.32-60.47,320.9-41.33,84.89-103.16,162.57-179.33,218.73-36.1,26.61-75.96,48.36-118.6,62.48-49.32,16.34-101.12,20.88-152.82,17.74-55.72-3.38-110.44-14.93-165.13-25.48-47.71-9.21-100.94-23.61-148.86-8.77-78.93,24.46-121.65,108.85-154.26,178.08-40.64,86.29-94.28,187.68-203.14,189.99-102.04,2.17-189.52-72.77-254.64-143.28-67.6-73.19-122.96-156.52-188.73-231.27-59.51-67.64-129.34-131.21-214.89-163.44-76.52-28.83-165.74-30.68-240.2,5.5-18.71,9.09-36.05,20.54-51.98,33.89-.12.1.05.28.18.18h0Z"/>
          <path class="cls-16" d="m-91.75-112.96c74.77-59.62,176.75-68,266.09-40.31,94.63,29.33,170.71,98.7,233.36,172.98,65.81,78.03,119.67,165.22,184.95,243.66,60.39,72.57,136.13,146.96,232.09,166.51,42.95,8.75,87.46,3.39,125.25-19.55s64.74-59.69,86.17-97.68c45.23-80.21,71.15-181.48,152.18-235.29,19.1-12.69,40.74-21.28,63.59-23.93,28.46-3.3,56.99,2.35,84.79,7.94,55.24,11.12,109.78,25.76,165.49,34.53,49.76,7.83,100.81,10.97,150.74,2.8,44.38-7.26,87.02-23.26,126.02-45.51,78.77-44.93,142.24-113.74,188.61-191.05,55.11-91.87,80.81-194.13,88.42-300.38,1.94-27.09,2.78-54.24,2.93-81.4,0-.16-.25-.16-.25,0-.61,112.58-14.15,226.33-63.03,328.98-41.13,86.39-102.24,165.23-180.76,220.67-37.51,26.49-79.1,47.38-123.37,59.87-49.89,14.07-101.95,15.86-153.3,10.53-56.88-5.9-112.45-19.9-168.17-32.21-47.86-10.57-100.01-25.04-148.07-8.09-79.34,27.97-119.99,114.34-152.6,185.25-21.16,46.02-43.58,93.25-78.39,130.73-33.77,36.37-79.12,58.44-129.22,57.68-103.72-1.56-190.36-79.98-254.55-153.66s-119.82-162.38-183.17-240.94c-59.05-73.22-128.78-143.28-216.71-180.62-77.11-32.74-169.01-38.88-246.53-4.04-18.92,8.5-36.53,19.44-52.74,32.36-.13.1.05.28.18.18h0Z"/>
          <path class="cls-48" d="m-92.42-153.3c76.95-58.43,180.63-62.62,269.73-32.16C273.3-152.65,348.96-79.39,410.59-1.25c64.76,82.1,116.9,173.21,180.9,255.86,59.12,76.33,133.06,154.56,229.57,180.17,42.67,11.32,88.15,9.66,127.82-10.87,39.43-20.4,67.99-55.88,90.14-93.5,48.39-82.2,71.14-185.61,150.72-245.99,17.05-12.94,36.44-22.84,57.35-27.75,29.98-7.03,60.5-2.49,90.15,3.94,56.14,12.18,111.21,28.84,167.52,40.28,53.24,10.82,108.09,16.97,162.26,9.91,43.12-5.62,84.88-19.64,123.29-39.91,79.97-42.2,145.03-109.96,190.85-187.33,55.57-93.85,82.21-199.41,90.9-307.5,2.34-29.11,3.46-58.29,3.78-87.48,0-.16-.25-.16-.25,0-1.28,114.91-15.92,230.76-64.02,336.17-40.24,88.19-101.39,167.93-182.25,222.45-37.74,25.45-79.54,45.07-123.79,56.07-53.95,13.4-109.85,12.34-164.49,3.91-56.8-8.77-112.11-24.78-167.84-38.44-47.69-11.69-98.05-24.98-145.7-6.17-80.63,31.83-118.98,121.65-152.06,194.94-21.02,46.56-43.99,94.45-80.2,131.32-35.6,36.25-83.13,55.92-134.13,52.46-103.83-7.04-188.11-87.31-250.7-163.39-66.65-81.01-119.03-172.36-181.85-256.19-57.07-76.15-124.83-149.56-211.89-191.35-77.87-37.37-172.93-48.55-254.24-15.38-19.67,8.02-38.04,18.66-54.95,31.5-.13.1,0,.31.13.22h0Z"/>
          <path class="cls-23" d="m-93.07-193.67c82.72-59.85,193.73-57.29,285.2-19.74,100.12,41.1,175.67,124.8,236.92,211.35,61.75,87.26,112.03,182.18,176.59,267.53,59.39,78.53,136.59,159.4,236.98,180.2,43.78,9.07,89.15,3.23,127.33-20.75s62.17-58.38,82.64-95.27c44.28-79.79,66.54-175.05,138.14-236.93,17.83-15.41,38.55-27.72,61.35-34.08,28.9-8.07,58.49-5.3,87.44,1.03,58.31,12.75,114.94,32.31,172.96,46.25s112.03,22.14,168.82,16.6c44.9-4.38,88.57-17.98,128.66-38.52,82.84-42.44,150.22-112.93,194.8-194.11,52.51-95.63,76.02-204.32,84.34-312.33,2.07-26.88,3.19-53.82,3.65-80.77,0-.16-.25-.16-.25,0-1.9,111.03-15.58,223.59-57.04,327.34-37.68,94.27-99.8,178.97-184.83,235.67-39.68,26.46-83.94,46.31-130.64,56.41-56.71,12.26-114.97,8.42-171.54-2.65-57.82-11.32-113.97-29.51-170.83-44.67-47.96-12.79-97.6-24.59-145.01-3.5-81.78,36.39-117.43,129.13-151.34,205.14-37.61,84.31-92.24,177.92-196.58,179.12-107.64,1.24-197.14-82.59-260.43-160.77-68.28-84.35-119.51-180.5-180.38-269.99-56.43-82.97-123.24-164.09-212.22-213.57-79.52-44.22-180.05-61.94-267.13-30.04-20.62,7.55-39.95,17.97-57.74,30.83-.13.09,0,.31.13.22h0Z"/>
        </g>
        <g>
          <path class="cls-70" d="m718.23,2735.25c25.25-12.08,37.02-42.43,44.43-67.55,12.01-40.71,15.83-83.89,17.36-126.13,1.79-49.07-.22-98.34-5.3-147.17-5.22-50.1-16.13-99.13-24.11-148.81-20.45-127.4-28.59-256.89-23.27-385.83,5.26-127.66,23.78-254.98,57.82-378.2,16.88-61.09,37.58-121.14,62.37-179.47,23.09-54.31,48.47-109.08,88.9-152.91,19.24-20.86,41.74-38.94,67.39-51.3,30.03-14.47,63.25-19.85,96.4-19.34,67.38,1.05,132.95,22.51,198.67,35.13,117.93,22.65,247,31.35,355.39-29.77,91.73-51.73,155.31-139.02,228.93-211.86,38.08-37.68,79.79-72.61,128.28-96.1,57.46-27.84,122.2-38.32,185.68-34.43,126.63,7.75,241.35,72.85,329.69,161.26,20.58,20.6,39.8,42.5,57.82,65.37.11.14.31-.06.2-.2-73.2-92.89-169.48-171.92-283.7-207.49-114.27-35.58-240.58-24.29-339.99,44.82-87.17,60.61-148.61,149.6-227.14,219.85-42.84,38.33-91,69.98-146.24,87.19-61.59,19.19-127.11,21.27-190.95,15.43-66.89-6.12-131.83-21.76-197.31-35.9-61.4-13.25-128.03-23.24-187.79,2.15-48.76,20.71-85.85,61.25-113.56,105.37-31.74,50.54-54.43,107.67-75.09,163.46-43.78,118.21-71.7,242.06-86.02,367.22-14.61,127.77-15.17,257.08-3.28,385.09,5.79,62.3,14.54,124.33,26.2,185.8,9.06,47.74,15.7,95.49,18.5,144.04,2.8,48.52,2.84,97.44-2.09,145.82-3.96,38.82-10.07,81.39-29.99,115.69-6.84,11.77-15.87,22.56-28.34,28.53-.16.08-.02.32.14.24h0Z"/>
          <path class="cls-19" d="m700.57,2710.45c24.1-12.61,34.85-42.58,41.66-67.13,11.34-40.88,14.62-84.05,15.69-126.3,1.21-47.88-1.15-95.92-6.51-143.52-5.65-50.16-16.9-99.37-24.63-149.22-19.38-124.94-26.45-251.9-20.21-378.2,6.21-125.54,25.64-250.63,60.34-371.5,17.21-59.95,38.19-118.85,63.16-176.01,22.78-52.13,49-103.22,89.29-144.19,44.69-45.45,101.61-68.98,165.43-68.63,68.33.38,133.81,22.16,200.94,31.81,125.48,18.03,262.24,4.45,372.26-62.35,89.48-54.32,153.25-139.94,228.35-210.99,39.02-36.92,81.98-70.83,131.4-92.69,57.35-25.37,120.95-34.18,183.26-29.2,122.9,9.83,234.12,73.07,321.04,158.1,20.77,20.31,40.21,41.92,58.49,64.48.11.14.31-.06.2-.2-73.04-90.11-167.6-166.89-279.24-202.69-111.72-35.82-235.89-27.38-335.34,37.45-88.85,57.92-152.27,145.36-230.11,215.91-43.28,39.23-90.9,70.91-145.32,92.54-63.44,25.21-131.21,35.58-199.26,35.98-36.47.21-73.21-1.74-109.29-7.16-32.97-4.95-65.41-12.79-98.09-19.24-61.82-12.21-128.09-20.79-188.12,3.72-104.36,42.61-152.91,158.4-190.35,256.37-44.06,115.31-72.74,236.24-88.05,358.66-15.7,125.55-17.4,252.79-6.6,378.82,5.26,61.38,13.51,122.5,24.69,183.08,8.87,48.05,16.62,95.7,19.87,144.53,3.19,47.87,3.65,96.15-.65,143.96-3.45,38.32-8.87,80.13-27.51,114.47-6.38,11.76-14.87,22.77-26.92,29.08-.16.08-.02.33.14.24h0Z"/>
          <path class="cls-51" d="m682.91,2685.66c23.63-13.58,33.34-44.51,39.51-69.25,10.29-41.24,12.9-84.45,13.33-126.8.49-47.72-2.42-95.55-8.47-142.89-6.67-52.2-18.6-103.56-26.04-155.66-17.66-123.77-22.81-249.42-14.46-374.18,8.29-123.85,29.93-247.01,66.84-365.59,18.32-58.86,40.21-116.85,66.55-172.61,23.49-49.71,54.9-97.29,97.62-132.54,50.23-41.44,111.55-56.45,175.89-52.37,66.31,4.2,130.05,25.38,196.12,30.68,63.95,5.13,130.98-3.57,192.9-19.62,59.88-15.52,118.84-40.99,171.44-73.55,88.73-54.92,153.42-139.08,229.34-209.04,39.27-36.19,82.35-69.39,131.54-90.96,57.48-25.2,121.16-33.74,183.5-28.53,122.09,10.21,232.67,72.81,319.85,156.5,20.52,19.7,39.8,40.62,58.02,62.46.12.14.31-.06.2-.2-73.26-87.82-166.74-162.68-276.59-198.45-112.15-36.52-236.24-28.51-336.64,35.83-88.59,56.76-153.18,142.09-230.63,211.85-93.48,84.2-213.36,135.67-338.14,150.07-33.38,3.85-67.47,5.96-101.04,3.63-33.69-2.34-66.86-9.77-99.93-16.23-62.95-12.29-129.54-24.29-192.69-6.63-108.85,30.43-165.94,136.52-205.82,233.54-46.98,114.29-78.22,234.8-95.62,357.06-17.46,122.66-21.09,247.23-12.24,370.78,4.37,61.08,11.82,121.94,22.27,182.28,8.55,49.33,18.21,97.88,22.34,147.87,4,48.4,5.15,97.26,1.66,145.73-2.81,38.95-7.42,81.25-25.17,116.67-5.94,11.84-13.89,23.18-25.58,29.89-.16.09-.02.33.14.24h0Z"/>
          <path class="cls-46" d="m665.25,2660.86c23.23-14.72,31.84-46.87,37.35-71.96,9.19-41.83,11.08-85.32,10.82-128.02-.28-46.39-3.67-92.86-10.17-138.79-7.85-55.46-20.27-110.09-27.43-165.7-15.73-122.19-18.82-246.1-8.35-368.87,10.48-122.84,34.62-244.73,74.23-361.55,35.74-105.42,80.95-223.94,178.61-287.27,53.78-34.87,116.42-42.37,179.16-36.25,34.41,3.36,68.38,9.98,102.35,16.25,31.58,5.84,63.57,12.23,95.82,12.24,61.5.02,124.26-16.24,181.74-37,58.96-21.29,115.43-51.68,168.55-84.76,88.76-55.27,154.63-138.57,231.55-207.92,39.02-35.18,81.51-67.28,129.68-88.87,56.68-25.4,119.75-34.27,181.46-29.66,122.49,9.15,233.86,70.92,322.32,153.66,20.94,19.58,40.66,40.41,59.34,62.15.12.14.32-.06.2-.2-74.85-87.11-169.52-161.43-280.22-196.22-111.59-35.07-233.22-26.31-332.98,36.94-89.03,56.45-154.99,140.85-233.13,210.22-44.07,39.12-92.65,69.62-144.43,97.49-57.6,31.01-117.96,55.78-181.86,70.39-32.2,7.36-65.48,13.07-98.58,13.48-34.69.43-69.06-6.59-103.03-12.88-61.98-11.48-126.1-24.5-189.17-13.92-111.1,18.63-181.53,113.48-224.27,210.41-49.07,111.29-82.57,229.17-102.22,349.12-19.91,121.51-25.67,245.28-18.65,368.18,3.49,61.13,10.17,122.08,19.98,182.52,8.21,50.58,19.23,100.38,24.21,151.47,4.65,47.78,6.45,96.02,3.95,143.98-2.08,39.94-5.84,82.94-22.55,119.83-5.49,12.13-12.97,24.03-24.43,31.29-.15.1-.01.34.14.24h0Z"/>
          <path class="cls-41" d="m647.59,2636.06c22.48-15.8,29.96-48.57,34.84-73.79,8.26-42.72,9.43-86.87,8.44-130.25-1.05-46.19-5.05-92.44-12.38-138.06-9.16-56.98-20.96-113.2-27.55-170.62-13.98-121.69-15-244.97-2.1-366.8,12.88-121.76,39.75-242.25,82.29-357.14,37.95-102.49,88.95-211.84,191.14-264.27,59.68-30.61,126.76-31.14,191.82-22.45,33.2,4.44,66.08,10.9,99.12,16.42s63.48,10.17,95.51,7.02c58.71-5.76,116.34-28.01,169.36-52.9,57.26-26.89,110.34-62.07,163.68-95.83,88.62-56.08,155.6-138.3,233.57-207.14,39.59-34.95,82.61-66.92,131.17-88.29,56.79-25,119.6-33.73,181.27-28.91,121.83,9.52,232.71,70.66,321.53,152.14,20.68,18.98,40.25,39.12,58.86,60.13.12.14.32-.06.2-.2-75.74-85.54-170.41-158.62-280.6-192.96-57.01-17.77-117.74-24.89-177.2-18.21-55.16,6.19-107.21,25.13-154.24,54.42-89.72,55.87-157.08,139.43-235.71,208.67-44.7,39.36-94.52,70.45-145.07,101.64-53.72,33.15-109.21,62.97-169.03,83.68-30.42,10.53-62.18,19.52-94.25,23.11-34.44,3.86-68.68-1.52-102.6-7.25-63.97-10.82-128.93-25.56-194.21-19.7-54.41,4.88-104.38,26.47-145.84,61.87s-70.51,77.48-94.12,123.79c-26.41,51.79-46.73,107.35-64.45,162.63-18.5,57.71-33.23,116.62-44.4,176.18-22.56,120.26-30.68,243.15-25.67,365.37,2.48,60.6,8.2,121.06,17.11,181.05,7.81,52.58,19.97,104.38,26,157.22,5.47,47.93,7.96,96.36,6.34,144.59-1.35,40.02-4.26,82.6-19.11,120.23-5.12,12.97-12.16,26.15-23.82,34.34-.15.1,0,.35.14.24h0Z"/>
          <path class="cls-31" d="m629.95,2611.24c22.15-17.38,28.36-51.89,32.53-77.87,6.97-43.38,7.33-87.89,5.53-131.69-4.35-105.92-31.48-208.45-41.88-313.71-11.96-121.05-10.65-243.52,4.89-364.18,15.59-121.01,45.59-240.4,91.65-353.46,40.57-99.58,102.93-200.1,208.89-238.96,62.71-23,130.32-17.99,195.1-8.15,32.14,4.88,64.09,10.95,96.27,15.59,29.72,4.29,59.67,7.35,89.51,2.31,58.46-9.87,113.92-38.48,164.63-68.01,53.19-30.98,102.14-68.61,152.99-103.17,43.79-29.77,84-62.44,122.5-98.83,38.38-36.28,75.33-74.1,115.11-108.87,39.73-34.73,82.65-66.5,130.9-88.38,56.73-25.73,119.55-35.15,181.51-30.8,122.13,8.57,233.64,68.91,323.7,149.31,21.12,18.85,41.14,38.89,60.23,59.79.12.13.32-.07.2-.2-77.47-84.86-173.41-157.38-284.6-190.79-57.23-17.2-118.03-23.79-177.47-16.49-55.18,6.77-106.95,26.58-153.89,56.09-89.35,56.16-157.57,138.6-236.64,207.25-45.54,39.54-96.62,71.85-145.87,106.47-49.34,34.67-99.78,67.8-154.65,93.18-28.78,13.32-59.07,25.08-90.2,31.57-34.51,7.2-68.83,3.66-103.36-1.49-63.83-9.53-127.6-24.42-192.51-23.13-56.2,1.11-109.9,16.99-155.91,49.58-41.19,29.17-74.44,68.53-100.65,111.41-29.43,48.16-50.17,101.71-68.82,154.79-20.12,57.25-36.34,115.85-48.87,175.22-25.2,119.39-35.53,241.84-32.32,363.78,1.59,60.25,6.49,120.41,14.66,180.12,7.44,54.37,20.1,107.84,27.06,162.25,6.09,47.6,9.13,95.74,8.26,143.73-.73,40.26-2.94,82.99-16.79,121.21-4.62,12.75-10.98,25.82-21.87,34.37-.14.11.06.31.2.2h0Z"/>
          <path class="cls-44" d="m612.29,2586.44c21.28-18.8,26.24-53.97,29.76-80.37,6.04-45.34,5.48-91.64,2.65-137.21s-8.79-90.9-17.71-135.77c-11.99-60.26-20.45-121.22-25.39-182.46-9.84-122.1-5.71-245.45,13.45-366.46s50.73-236.71,101.77-345c45.33-96.18,122.59-185.01,230.09-209.5,65.93-15.02,134.21-5.13,199.99,5.46,58.29,9.38,120.84,24.89,179.07,8.01,55.74-16.16,106.11-48.57,153.14-81.65,49.86-35.06,95.74-75.39,144.71-111.64,21.47-15.9,43.4-31.01,64.05-47.99,20.45-16.83,40.1-34.61,59.42-52.71,38.51-36.08,75.79-73.52,115.85-107.91,40-34.33,83.13-65.7,131.39-87.41,56.74-25.52,119.25-34.94,181.15-30.61,121.47,8.5,232.63,68.02,323.18,146.86,21.32,18.56,41.59,38.28,60.97,58.85.12.13.32-.07.2-.2-78.1-82.9-173.56-153.94-283.71-187.13-57.83-17.42-119.32-24.19-179.39-16.67-54.39,6.81-105.45,26.33-151.96,55.03-90.15,55.62-159.66,137.45-239.07,206.29-44.77,38.81-94.31,71.7-140.64,108.62-47.26,37.66-94.66,75.27-146.86,105.98-26.73,15.73-54.92,29.82-84.43,39.52-31.81,10.46-63.75,11.46-96.79,7.86-64.45-7.02-127.82-22.39-192.69-25.79-58.43-3.06-116.62,5.43-168.35,33.9-43.94,24.18-80.79,59.7-110.46,99.85-31.95,43.24-54.41,91.66-73.93,141.52-22.14,56.57-40.25,114.71-54.51,173.76-28.44,117.72-41.67,239.01-41.03,360.06.32,61.04,4.18,122.06,11.51,182.65,6.64,54.85,18.61,108.58,26.96,163.11,7.43,48.49,11.4,97.67,11.62,146.73.18,41.86-1.04,86.15-13.86,126.37-4.15,13.03-9.89,26.62-20.35,35.86-.14.12.06.32.2.2h0Z"/>
          <path class="cls-60" d="m594.63,2561.64c20.15-20.23,23.88-55.54,26.75-82.36,4.94-46.06,3.59-92.89-.06-139-3.76-47.47-12.1-93.68-20.78-140.42-11.25-60.58-18.83-121.83-22.72-183.32-7.71-121.8-1.04-244.65,21.17-364.69,10.9-58.92,25.56-117.16,44.17-174.12,17.82-54.54,38.05-109.49,66.49-159.49,54.87-96.5,142.88-174.63,256.65-186.85,65.85-7.07,131.83,4.82,196.71,14.91,58.06,9.03,117.8,20.36,174.09-2.37,52.46-21.19,98.16-56.21,141.48-91.91,45.05-37.12,86.71-78.13,131.73-115.28,22.36-18.45,46.04-35.17,68.46-53.54,20.38-16.7,40-34.31,59.32-52.22,38.95-36.11,76.71-73.54,117.19-107.98,40.41-34.38,83.84-65.89,132.31-87.94,55.93-25.45,117.23-35.57,178.46-32.03,122.72,7.1,235.44,66.32,327.81,144.67,21.57,18.3,42.13,37.74,61.86,58.01.13.13.32-.07.2-.2-79.95-82.17-176.7-152.7-287.93-184.99-57.52-16.7-118.51-22.99-178.03-15.13-54.66,7.21-105.86,27.41-152.58,56.34-90.17,55.85-160.53,136.96-240.29,205.7-20.77,17.9-42.67,34.14-64.31,50.95-24.71,19.19-48.34,39.7-71.64,60.56-44.11,39.51-87.68,79.75-135.9,114.31-24.4,17.49-50.17,33.43-77.56,45.82-30.43,13.78-61.51,19.75-94.9,17.99-64.57-3.4-127.95-19.15-192.27-25.31-59.94-5.74-120.93-3.23-177.08,20.43-46.89,19.76-87.57,52.09-120.84,90.29-33.77,38.77-60.22,83.53-80.43,130.7-23.26,54.28-42.54,110.26-58.06,167.23-31.7,116.34-47.74,236.83-49.48,357.35-.88,61.15,1.93,122.35,8.35,183.16,5.98,56.59,16.97,111.96,26.71,167.95,8.38,48.19,13.04,97.18,14.22,146.07,1.03,42.77.68,87.78-10.82,129.31-3.68,13.28-8.73,27.23-18.65,37.18-.13.13.07.33.2.2h0Z"/>
          <path class="cls-32" d="m576.97,2536.84c19.27-22.27,21.62-58.72,23.75-86.63,3.57-46.83,1.34-94.2-3.28-140.87-4.9-49.48-15.46-97.63-23.73-146.57-10.16-60.14-16.59-120.9-19.27-181.83-5.33-121.04,4.09-242.89,29.46-361.4,12.38-57.83,28.57-114.85,48.76-170.44,18.97-52.24,40.83-103.37,72.06-149.57,29.36-43.43,65.96-82.53,109.84-111.53,50.2-33.17,107.9-49.6,167.88-51.27,65.27-1.81,129.77,10.91,194.11,20.06,30.31,4.32,61.21,8.87,91.9,8.02,28.01-.77,54.34-8.58,79.15-21.42,50.7-26.23,93.39-64.86,134.42-103.95,41.85-39.87,80.78-82.71,123.67-121.5,21.68-19.61,44.87-37.21,67.36-55.83,20.2-16.73,39.71-34.29,58.97-52.09,39.27-36.3,77.54-73.74,118.57-108.09,40.57-33.97,84.14-65.04,132.55-86.87,56-25.25,117.11-35.44,178.35-31.89,122.4,7.1,234.98,65.74,328.02,142.78,21.57,17.86,42.21,36.82,62.07,56.57.13.13.33-.07.2-.2-81.03-80.59-177.92-149.98-288.86-181.87-57.67-16.58-118.75-22.82-178.38-14.83-54.06,7.25-104.8,27.26-151.21,55.55-90.72,55.32-162.1,135.74-241.76,204.85-21.43,18.59-44.16,35.54-65.78,53.9-23.26,19.76-45.34,40.86-66.95,62.41-40.52,40.42-79.95,81.99-123.38,119.38-46.88,40.37-102.84,81.03-167.01,82.8-33.13.91-66.6-4.32-99.29-9.09-31.19-4.55-62.3-9.71-93.6-13.55-62.18-7.63-126.15-9.73-186.49,9.73-47.14,15.2-89.54,42.53-125.17,76.69-78.46,75.24-119.95,177.91-151.35,279.92-35.37,114.9-54.51,234.65-58.86,354.73-4.34,119.88,7.06,238.88,30.42,356.41,9.54,48.02,14.93,97.01,17.1,145.91,1.92,43.44,2.43,88.75-7.27,131.39-3.18,13.99-7.59,28.92-17.15,39.98-.12.14.08.34.2.2h0Z"/>
          <path class="cls-33" d="m559.33,2512.01c18.18-24.57,19.16-62.51,20.46-91.7,2.15-48.18-1.11-96.72-6.94-144.54-6.18-50.64-18.05-100.25-25.65-150.67-9.17-60.87-14.42-122.35-15.68-183.89-2.47-120.28,10.2-241.05,39.32-357.83,26.93-108.03,64.5-220.14,136.43-307.07,32.86-39.71,72.72-74.07,118.78-97.55,54.85-27.94,115.59-36.92,176.65-34.55,64.28,2.49,127.51,15.45,191.25,23.11,30.19,3.63,61.39,7.29,91.7,2.9,26.02-3.77,49.99-14.78,72.05-28.71,48.29-30.5,87.91-71.9,126.42-113.59,38.94-42.15,75.4-86.58,116.16-127.03,39.57-39.27,84.05-73.24,124.99-111.07,39.29-36.32,77.78-73.58,119.01-107.73,40.79-33.79,84.55-64.68,133-86.51,55.33-24.93,115.44-35.5,175.99-32.49,122.82,6.12,236.17,64.13,330.53,140.04,22.06,17.75,43.21,36.58,63.61,56.2.13.13.33-.07.2-.2-82.98-79.78-181.25-148.76-293.35-179.75-56.25-15.55-115.58-21.42-173.59-13.78-54.93,7.23-106.55,27.65-153.74,56.3-91.31,55.42-163.67,135.64-243.57,205.32-21.63,18.87-44.27,36.5-65.27,56.1-22.22,20.75-43.14,42.82-63.51,65.36-38.29,42.38-75.14,86.11-115.79,126.29-41.66,41.18-93.11,86.22-153.19,94.93-31.53,4.57-64,.55-95.4-3.31-33.84-4.17-67.49-9.72-101.27-14.34-60.82-8.31-123.34-13.91-184.01-1.43-49.92,10.28-96.26,32.98-136.17,64.52-84.23,66.56-132.38,162.61-166.79,262.07-39.22,113.34-61.6,232.3-68.62,351.95-7.04,119.93,1.28,240.78,24.49,358.65,9.71,49.3,17.21,98.63,20.4,148.83,2.84,44.66,4.3,91.18-4.33,135.34-2.68,13.73-6.39,28.27-14.84,39.69-.11.15.14.29.24.14h0Z"/>
          <path class="cls-58" d="m541.67,2487.21c16.66-26.88,16.36-65.56,16.82-95.98.72-47.51-3.23-95.2-9.77-142.23-7.55-54.35-20.48-107.71-27.61-162.17-7.84-59.89-11.76-120.29-11.69-180.68.15-120.11,16.04-240.4,49.09-355.94,30.09-105.2,71.91-209.77,149.63-289.18,36.2-36.99,79.28-67.58,127.6-86.55,59.1-23.21,122.69-26.3,185.36-21.13,64.26,5.3,127.6,18.24,191.81,23.95,28.91,2.57,58.8,4.15,87.1-3.59,25.61-7,48.53-20.96,69.55-36.86,45.85-34.66,82.65-79.03,118.92-123.19s68.82-87.75,106.59-128.82c37.94-41.26,81.67-76.29,122.69-114.34,39.15-36.32,77.69-73.37,118.94-107.33,41.25-33.97,85.48-65,134.35-87.03,55.85-25.17,116.35-36.06,177.5-33,122.62,6.13,235.74,63.7,330.91,138.23,22.09,17.3,43.31,35.67,63.87,54.76.13.12.33-.08.2-.2-84.16-78.16-182.57-146.01-294.47-176.67-56.98-15.61-117.09-21.38-175.77-13.25-54.28,7.52-105.38,27.96-152.15,56.12-91.75,55.25-164.94,135.07-244.58,205.47-21.96,19.41-44.25,38.21-64.76,59.19-20.55,21.03-39.83,43.26-58.5,65.96-35.99,43.75-70.19,88.98-107.71,131.45-38.43,43.49-85.16,91.23-142.33,108.29-30.38,9.07-62.69,7.1-93.85,4.2-33.66-3.14-67.1-8.2-100.55-13-62.65-8.99-126.41-17.52-189.69-10.12-53.08,6.21-103.59,24.87-148.01,54.53-84.85,56.64-141.42,144.58-177.92,238.22-43.26,110.98-69.16,228.47-79.23,347.08-10.15,119.69-4.26,240.75,17.05,358.95,9.27,51.42,19.43,102.02,23.86,154.19,3.87,45.56,6.21,92.57-.47,137.99-2.13,14.49-5.15,29.91-12.97,42.53-.1.15.15.29.24.14h0Z"/>
          <path class="cls-24" d="m524.01,2462.41c6.17-12.24,8.54-26.2,10.2-39.67,2.61-21.09,2.97-42.46,2.58-63.68-.87-48.17-5.84-96.4-13.63-143.93-9.2-56.11-21.6-111.29-27.77-167.94-6.58-60.37-9.03-121.2-7.27-181.9,3.47-119.3,23.22-238.36,60.77-351.72,33.7-101.72,82.67-198.6,165.89-268.79,39.88-33.64,86.24-59.45,136.64-73.33,62.23-17.13,127.39-14.84,190.92-7.62s124.08,19.21,186.74,22.34c29.8,1.49,59.57-.24,87.32-12.1,22.58-9.65,42.49-24.38,60.99-40.32,44.12-38.03,78.65-85.23,113.06-131.82,33.36-45.18,65.18-91.56,101.52-134.46,36.2-42.74,78.42-78.81,119.19-116.98,39.7-37.16,79.05-74.82,121.28-109.14,41.45-33.68,85.92-64.28,134.91-85.94,54.51-24.1,113.24-34.92,172.78-32.41,122.08,5.13,235.34,61.32,331.29,133.88,23.38,17.69,45.89,36.48,67.73,56.05.13.12.33-.08.2-.2-86.09-77.15-185.69-144.48-298.59-174.41-55.96-14.83-114.82-20.27-172.33-12.33-54.15,7.47-105.29,27.76-152.12,55.58-92.37,54.88-166.41,134.41-245.57,205.82-42.73,38.55-80.83,79.96-115.63,125.83-34.98,46.11-67.63,93.96-103.25,139.6-35.25,45.15-76.75,93.19-129.45,118.23-30.65,14.56-63.8,16.58-97.21,14.64-33.05-1.92-65.93-6.32-98.69-10.89-62.5-8.71-125.42-18.81-188.74-16.39-55.08,2.11-108.9,15.19-157.58,41.34-88.03,47.29-153.73,129.5-195.13,219.17-48.46,104.96-76.06,221.34-89.28,335.82s-10.74,240.65,8.31,359.26c8.57,53.38,20.86,105.81,26.71,159.65,5.07,46.62,8.46,94.44,3.96,141.25-1.53,15.93-3.72,32.91-11.02,47.39-.08.16.16.3.24.14h0Z"/>
          <path class="cls-30" d="m506.36,2437.58c5.61-14.27,7.2-30.06,8.22-45.24,1.46-21.65,1.07-43.43,0-65.09-2.43-49.21-8.47-98.44-17.73-146.82-11.21-58.54-21.84-116.6-26.78-176.1-4.85-58.48-5.69-117.3-2.4-175.88,6.73-119.75,30.72-238.81,73.64-350.91,36.86-96.28,95.94-185.83,181.54-245.38,44.57-31.01,95.34-52.27,148.99-61.06,63.75-10.45,128.71-4.33,192.32,3.98,62.3,8.14,126.06,21.12,189.12,18.76,26.65-1,52.16-7.05,75.54-20.1,22.71-12.68,42.62-30.17,60.87-48.54,40.04-40.28,71.28-88,102.74-134.98,31.53-47.09,61.87-95.07,96.84-139.74,34.36-43.88,74.55-81.06,114.85-119.29,39.1-37.11,78.13-74.43,120.01-108.43,42-34.1,87.12-65.03,136.75-86.96,54.99-24.29,114.21-35.37,174.29-32.82,121.26,5.14,233.95,60.41,330.31,131.1,23.95,17.57,47.06,36.24,69.53,55.65.14.12.34-.08.2-.2-88.69-76.62-190.36-143.95-305.28-172.77-55.7-13.97-114.06-18.71-171.01-10.17-54.32,8.14-105.61,29.15-152.52,57.33-92.08,55.31-166.91,134.45-245.03,207.04-84,78.06-139.76,178.92-204.99,271.9-33.29,47.46-71.65,96.75-121.92,127.26-56.87,34.52-126.16,23.61-188.88,15.66-120.05-15.21-244.57-40.32-359.89,10.6-90.93,40.15-161.86,116.56-209.01,202.77-25.9,47.36-44.57,98.57-60.29,150.1-17.68,57.95-30.62,117.33-39.04,177.32-16.48,117.36-15.77,237.09,1.11,354.36,7.85,54.54,21.06,108.07,28.16,162.74,6.27,48.24,10.76,97.62,7.81,146.3-.96,15.94-2.47,32.56-8.37,47.55-.07.17.21.24.27.07h0Z"/>
          <path class="cls-34" d="m488.7,2412.78c10.51-36.71,6.17-79.18,3.21-116.6-3.85-48.7-10.8-97.25-20.88-145.05-24.8-117.6-33.11-238.43-22.96-358.25,9.89-116.71,35.9-236.04,85-342.85,41.82-90.99,107.75-173.74,194.86-224.85,49.96-29.31,105.66-46.24,163.37-50.82,64.04-5.09,128.17,3.24,191.54,11.79,30.73,4.15,61.44,8.43,92.31,11.46s62.93,5.95,94.01,2.03c53.92-6.8,95.11-42.22,129.73-81.73,37.25-42.51,66.16-91.35,95.53-139.4,28.99-47.43,57.16-95.46,89.62-140.65,33.94-47.26,73.73-87.61,115.41-127.93,38.41-37.16,77.11-74.15,118.71-107.76,41.8-33.77,86.75-64.27,136.05-86.03,54.35-23.99,112.81-35.41,172.22-33.37,121.8,4.17,235.31,59.01,333.06,128.51,24.54,17.45,48.27,35.99,71.42,55.25.14.11.34-.08.2-.2-89.54-74.49-190.8-140.48-304.9-169.32-56.45-14.27-115.67-19.15-173.4-10.38-53.64,8.16-104.46,28.75-150.98,56.3-45.79,27.11-87.51,60.57-127.13,95.95-40.66,36.32-80.19,74.3-118.75,112.83-81.21,81.15-133.95,184.38-194.88,280.39-31.56,49.73-67.27,100.37-115.2,135.73-26.12,19.27-55.46,30.28-87.86,32.62-30.77,2.22-62.04-.87-92.62-4.12-124.07-13.19-252.66-44.91-374.34-1.1-92,33.12-166.97,102.34-219.33,183.69-60.28,93.64-92.46,206.05-111.21,314.93-20.14,117.01-22.1,237.07-7.16,354.81,6.93,54.57,19.96,107.9,28.31,162.2,7.65,49.74,13.29,100.5,12.5,150.91-.27,16.98-.98,34.52-5.69,50.94-.05.17.22.25.27.07h0Z"/>
          <path class="cls-64" d="m471.04,2387.98c7.25-39.56,2.03-82.4-2.21-122-5.4-50.45-15.05-99.82-24.81-149.54-23.21-118.19-28.45-240.08-14.45-359.74,24.41-208.53,106.74-443.35,310.1-539.15,53.77-25.33,112.13-36.6,171.38-37.41,63.15-.87,125.84,8.56,188.29,16.76,30.05,3.95,60.15,7.69,90.38,9.94s58.74,3.81,87.49-1.6c54.22-10.2,95.06-50.87,128.08-92.55,34.96-44.13,61.91-93.71,89.32-142.68,27.44-49.02,54.49-98.42,85.55-145.27,31.98-48.24,69.09-90.56,110.05-131.26,38.66-38.41,77.94-76.36,120.34-110.68,41.83-33.86,86.9-64.32,136.24-86.16,55.02-24.35,114.21-36.09,174.39-34,122.3,4.24,236.32,59.3,335.22,127.95,24.08,16.72,47.47,34.41,70.35,52.73.14.11.34-.09.2-.2-91.35-73.1-193.5-138.49-308.29-166.82-56.14-13.86-114.92-18.51-172.23-9.67-54.42,8.39-106.01,29.44-153.17,57.48-45.78,27.22-87.53,60.72-127.02,96.31-40.62,36.61-80.9,74.82-117.8,115.2-77.63,84.98-127.43,189.96-184.75,288.62-29.46,50.7-62.55,101.39-107.18,140.15-22.9,19.89-49.36,34.94-79.39,40.59s-63.77,3.58-95.26.97c-123.78-10.27-250.64-44.86-374.03-13.25-96.49,24.72-178.56,87.59-237.94,166.36-65.28,86.6-101.56,191.46-124,296.63-24.97,117.01-30.35,238.06-17.8,356.98,5.9,55.88,18.14,110.25,27.94,165.46,9.02,50.86,15.8,102.58,17.34,154.25.55,18.44.72,37.31-2.62,55.53-.03.18.24.25.27.07h0Z"/>
          <path class="cls-69" d="m453.39,2363.14c3.52-41.77-2.44-84.97-7.99-126.3-7.21-53.75-19.57-106.3-28.83-159.67-20.79-119.82-22.45-243.22-3.22-363.35,17.42-108.8,50.13-219.35,111.2-312.03,55.3-83.92,133.91-154.61,229.14-189.44,119.83-43.82,246.64-18.63,369.32-4.06,30.67,3.64,61.47,6.73,92.36,7.68,28.01.86,56.79-.28,83.39-9.95,48.7-17.7,85.06-60.32,114.31-101.33,33.43-46.87,58.94-98.62,85.32-149.61,25.53-49.33,50.91-98.86,80.19-146.11,30.69-49.54,66.29-94.25,106.94-135.95,37.73-38.7,76.55-76.52,118.57-110.58,42.42-34.38,88.32-65.08,138.53-86.88,54.73-23.76,113.51-35.21,173.19-33.11,122.87,4.33,237.44,59.68,337.57,127.45,23.63,15.99,46.65,32.84,69.26,50.23.14.11.28-.13.14-.24-94.21-72.43-198.58-137.94-315.59-165.24-57.15-13.34-116.89-17.11-174.86-6.83-52.76,9.36-102.78,30.41-148.58,57.89-45.85,27.52-87.67,61.27-127.03,97.33-41.01,37.57-81.91,77.02-117.4,119.91-72.61,87.76-119.27,192.63-172.52,292.37-27.61,51.7-58.46,102.9-100.18,144.57-21.19,21.16-45.97,39.32-74.88,48.18-30.4,9.31-62.94,8.59-94.34,6.8-124.75-7.09-250.11-42.74-375.25-21.09-100.05,17.31-188.2,73.88-254.09,149.99-69.69,80.5-110.86,178.89-136.73,281.27-29.13,115.26-37.67,235.49-27.67,353.87,9.39,111.11,41.58,218.53,48.96,329.97,1.19,18.02,2.02,36.22.5,54.25-.02.18.27.18.28,0h0Z"/>
          <path class="cls-57" d="m435.73,2338.35c-1.16-100.77-30.52-198.35-45.53-297.26-18.24-120.19-16.53-243.74,7.55-363,21.64-107.15,60.02-212.09,127.64-299.02,62.27-80.04,147.22-143.54,246.03-169.79,123.76-32.88,251.57-2.19,375.92,9.9,53.52,5.2,114.27,12.3,164.24-12.25,47.05-23.11,81.5-68.35,109.24-111.43,31.04-48.21,54.81-100.51,79.54-152.1s48.64-101.33,76.87-149.91c55.71-95.86,131.94-178.77,217.45-249.03,89.04-73.16,194.1-125.45,311.72-122.34,123.57,3.27,239.19,58.48,340.82,125.02,24.26,15.88,47.95,32.6,71.28,49.81.15.11.29-.14.14-.24-96.18-70.95-201.55-136-319.38-162.83-56.91-12.96-116.28-16.47-173.91-6.11-52.7,9.48-102.71,30.42-148.51,57.85-47.05,28.18-89.87,62.99-129.82,100.43-39.54,37.06-78.39,76.24-111.51,119.22-69.83,90.62-114.43,196.77-164.54,298.74-26.16,53.24-55.18,105.76-94.7,150.4-18.46,20.86-39.67,39.91-64.84,52.27-29.47,14.48-62.39,17.21-94.77,16.62-125.17-2.26-248.54-38.35-374.19-26.73-104.05,9.62-198.5,57.73-272.12,131.12-72.9,72.68-120.72,163.9-150.54,261.71-34.64,113.63-47.25,233.57-40.37,352.03,6.64,114.34,38.96,224.42,51.69,337.98,2.19,19.56,4.06,39.23,4.28,58.93,0,.18.28.18.28,0h0Z"/>
          <path class="cls-59" d="m418.06,2313.55c-4.96-47.66-13.34-95.05-22.29-142.1-11.06-58.11-25.3-115.42-32.4-174.23-14.33-118.67-8.39-240.16,20.92-356.18,26.01-102.99,70.54-200.24,142.03-279.72,68.77-76.46,159.54-133.17,261.46-151.67,125.27-22.74,251.52,9.6,376.39,19.03,54.49,4.11,113.05,7.26,161.08-23.26,44.17-28.06,76.27-74.36,102.32-118.74,29.1-49.55,51.41-102.6,74.76-154.99,22.86-51.28,46.04-102.52,72.91-151.85,53.7-98.55,126.74-184.39,213.14-255.94,87.35-72.33,191.49-123.98,307.06-122.21,124.42,1.91,241.13,56.75,344.44,122,25.29,15.98,50.04,32.8,74.47,50.06.15.1.29-.14.14-.24-98.92-69.91-206.24-135.05-325.98-161.03-57.21-12.41-116.75-15.23-174.41-4.07-52.07,10.08-101.46,31.08-146.71,58.48-45.84,27.75-87.6,61.85-126.28,98.82s-77.43,78.27-109.41,122.78c-67.09,93.38-109.79,200.75-157.08,304.77-24.71,54.34-51.93,108.12-89.3,155-17.6,22.08-37.53,42.85-61.66,57.84-26.27,16.32-56,22.98-86.62,24.4-62.26,2.89-125.25-6.86-186.84-14.68s-126.71-16.06-190.49-13.87c-106.54,3.65-205.5,42.73-286.04,112.45-74.2,64.23-129.6,148.79-163.22,240.69-40.78,111.45-57.94,230.94-54.38,349.4,1.79,59.48,8.78,118.8,20.72,177.09,11.21,54.74,22.96,109.22,31.75,164.44,3.57,22.45,6.88,44.95,9.23,67.56.02.18.3.18.28,0h0Z"/>
          <path class="cls-39" d="m400.4,2288.71c-9.96-51.52-20.35-102.96-31.41-154.26-12.52-58.1-25.29-115.6-30.86-174.9-11.26-119.8-.65-242.16,35.66-357.1,30.94-97.94,83.39-188.35,158.05-259.47,78.62-74.88,178.28-122.89,286.94-131.91,124.78-10.35,247.8,22.07,372.02,26.96,54.2,2.14,106.44-2.59,150.06-37.86,42.14-34.07,72.41-83.02,97.22-130.46,25.9-49.53,46.23-101.67,67.69-153.21,22.53-54.09,45.68-108.02,72.92-159.93,51.95-99.01,122.35-186.7,208.86-257.75,87.01-71.46,191.46-120.36,305.92-117.46,124.22,3.14,240.56,58.32,344.51,122.3,24.45,15.05,48.47,30.79,72.26,46.87.15.1.29-.14.14-.24-99.96-67.57-207.05-131.7-326.2-157.86-58.08-12.75-118.52-15.7-177.08-4.33-50.7,9.85-98.93,29.94-143.2,56.33-44.92,26.78-85.88,59.85-123.49,96.09-39.72,38.28-76.7,79.91-107.94,125.43-65.55,95.5-107.2,204.14-151.73,310.32-22.98,54.8-47.8,109.34-81.9,158.26-33.59,48.18-75.69,90.46-135.89,100.44-31.52,5.23-64.13,3.59-95.87,1.52s-64.49-5.74-96.61-9.68c-62.68-7.69-125.41-16.72-188.65-17.88-60.66-1.11-121.15,5.88-178.5,26.34-45.49,16.23-88.14,39.93-126.59,69.1-78.08,59.23-138.99,140.32-178.01,229.96-45.58,104.7-65.22,221.2-65.14,334.99.04,60.33,5.8,120.63,16.86,179.93,10.54,56.52,24.32,112.49,35.72,168.85,4.76,23.54,9.43,47.1,13.99,70.67.03.18.3.1.27-.07h0Z"/>
          <path class="cls-10" d="m382.74,2263.91c-15.09-53.89-27.85-108.43-40.54-162.92-13.76-59.08-24.65-118.29-28.57-178.92-7.61-117.79,7.1-238.39,49.55-348.9,35.99-93.69,95.49-179.11,172.84-243.31,86.16-71.51,190.77-110.45,302.75-113.29,125.72-3.18,249,30.07,374.55,29.52,27.07-.12,54.67-2.48,80.22-12.03,22.88-8.56,43.09-22.85,60.55-39.77,38.63-37.45,66.56-86.07,89.73-134.14,24.34-50.49,43.53-103.22,63.86-155.4,21.25-54.54,43.34-108.84,69.31-161.33,49.57-100.22,115.85-190.74,201.67-262.97,84.86-71.42,188.07-120.44,300.66-119.66,126.56.87,245.55,56.76,352.26,120.15,25.16,14.95,49.92,30.55,74.51,46.42.15.1.29-.14.14-.24-103.19-66.62-212.8-131.34-334.5-156.45-57.44-11.85-116.97-14.04-174.63-2.38-50.56,10.22-98.65,30.52-142.69,57.17-90.57,54.79-167.71,135.17-224.85,223.83-62.48,96.95-102.53,205.5-144.19,312.4-21.63,55.52-44.68,110.92-76.37,161.58-30.27,48.4-69.47,97.48-126.5,114.15-29.93,8.75-61.63,9.02-92.55,8.01-32.31-1.05-64.54-3.96-96.66-7.53-64.21-7.13-128.19-17.03-192.76-20.54-61.77-3.36-124.21-.47-184.06,16.21-47.71,13.29-93.03,34.44-134.34,61.71-81.06,53.49-146.42,129.55-191.12,215.48-51.69,99.38-75.63,212.94-79.14,324.38-1.87,59.41,2.24,118.98,11.78,177.64,9.56,58.8,24.64,116.86,38.88,174.67,6.31,25.6,12.82,51.16,19.93,76.55.05.17.32.1.27-.07h0Z"/>
          <path class="cls-25" d="m365.08,2239.11c-40.94-112.5-70.97-232.67-75.04-352.66-3.98-117.23,15.72-237.68,66.72-343.94,42.85-89.26,107.44-168.7,188.24-226.25,40.29-28.7,84.61-51.82,131.55-67.54,59.66-19.97,122.36-26.36,185.04-24.89,63.01,1.48,125.55,10.11,188.04,17.63,60.69,7.31,123.14,15.56,184.37,11.27,25.21-1.76,50.38-6.69,73.11-18.1,22.36-11.23,41.61-27.78,58.22-46.33,36.3-40.56,62.65-89.99,84.61-139.46,47.11-106.09,78.28-218.37,128.02-323.49,47.9-101.21,111.35-195.01,197.25-267.83,83.44-70.73,185.89-117.93,296.68-117.34,126.52.67,245.55,56.3,353.18,117.99,25.91,14.85,51.46,30.3,76.89,45.95.15.09.3-.15.14-.24-105.01-64.63-215.3-128.88-337.47-153.93-56.72-11.63-115.47-13.84-172.44-2.68-50,9.79-97.69,29.39-141.34,55.48-91.89,54.91-166.79,136.8-222.32,227.64-60.55,99.05-99.52,208.63-139,317.21-20.71,56.93-42.53,113.85-72.67,166.57-27.48,48.07-62.75,98.63-114.61,122.47-28.61,13.15-60.39,16.38-91.53,16.65-31.38.27-62.8-1.88-94.03-4.78-64.33-5.96-128.22-15.97-192.61-21.43-62-5.25-124.92-6.23-186.3,5.36-50.42,9.52-99,27.59-143.81,52.51-85.52,47.56-156.68,119.34-207.61,202.57-57.24,93.53-87.11,201.69-94.97,310.62-8.9,123.34,13.12,243.63,47.6,361.61,7.81,26.73,16.29,53.25,25.82,79.42.06.17.33.1.27-.07h0Z"/>
          <path class="cls-66" d="m2497.96,480.69c-105.1-61.54-214.05-124.23-334.34-150.18-55.59-11.99-113.24-15.21-169.46-5.61-51.42,8.78-100.68,27.96-145.59,54.32-94.79,55.63-167.86,140.69-222.36,235.08-60.45,104.7-98.39,219.35-137.52,333.14-20.16,58.62-41.79,117.14-72.08,171.39-28.54,51.12-65.98,105.14-122.34,127.81-29.59,11.9-61.97,14.25-93.57,14.19-33.11-.07-66.22-2.39-99.17-5.57-64.98-6.28-129.57-16.21-194.66-21.37-61.37-4.86-123.58-5.4-184.29,6.01-47.25,8.88-93.02,25.05-135.68,47.18-86.92,45.09-160.5,114.25-214.4,195.7-127.17,192.16-129.81,439.96-56.55,652.74,9.22,26.77,19.68,53.07,31.21,78.92.07.16.32.02.24-.14-94.26-211.44-116.53-468.89-5.81-678.82,46.68-88.52,115.16-166.12,199.05-221.01,41.44-27.12,86.64-48.57,134.14-62.7,56.55-16.82,115.58-22.02,174.4-20.66,63.71,1.47,126.95,10.04,190.15,17.59,62.42,7.45,126.37,15.65,189.34,11.68,27.2-1.71,54.47-6.89,78.86-19.48,22.92-11.83,42.54-29.2,59.36-48.59,37.03-42.68,63.39-94.58,85.22-146.33,22.71-53.85,40.47-109.58,59.44-164.8,19.77-57.57,40.88-114.76,65.89-170.29,46.84-104.01,108.49-203.26,196.15-277.76,84.84-72.1,190.35-117.01,302.82-113.36,122.23,3.97,236.82,57.58,342,115.72,26.7,14.76,53.1,30.07,79.42,45.48.16.09.3-.15.14-.24h0Z"/>
        </g>
        <g>
          <path class="cls-17" d="m-76.87,461.29c25.49,84.61,62.54,165.51,108.97,240.65,46.25,74.85,101.64,143.98,163.94,206.07,64.54,64.31,136.54,120.85,213.81,169.08,80.91,50.5,167.36,91.93,256.9,124.67,90.63,33.14,184.46,57.41,279.62,73.38,11.77,1.98,23.57,3.82,35.38,5.54.16.02.23-.22.07-.24-94.57-13.83-187.99-35.65-278.6-66.15-90.95-30.61-179.04-69.95-261.88-118.46-79.37-46.47-153.76-101.4-220.77-164.44-64.49-60.67-122.23-128.62-170.98-202.55C.99,655.17-38.68,575.5-66.88,491.82c-3.42-10.14-6.66-20.34-9.75-30.59-.05-.15-.29-.09-.24.07h0Z"/>
          <path class="cls-67" d="m-86.37,482.03c25.82,84.48,63.44,165.1,110.57,239.78,47.21,74.81,103.77,143.64,167.3,205.16,65.26,63.19,137.9,118.46,215.68,165.34,82.68,49.84,170.92,90.23,262.14,121.72,92.09,31.79,187.24,54.56,283.56,69.04,11.09,1.67,22.19,3.22,33.3,4.67.16.02.16-.23,0-.25-95.97-12.56-190.92-33.11-283.15-62.54-91.95-29.34-181.17-67.48-265.19-115.03-79.85-45.19-154.85-98.89-222.53-160.88-65.44-59.93-124.11-127.34-173.68-200.96-49.12-72.95-89.25-152.04-117.77-235.27-3.5-10.22-6.82-20.51-9.98-30.85-.05-.15-.29-.09-.24.07h0Z"/>
          <path class="cls-65" d="m-95.87,502.76c26.16,84.42,64.39,164.83,112.25,239.08,47.76,74.11,104.92,142.08,168.99,202.61,66.36,62.7,140.15,117.19,219.04,163.09,83.96,48.84,173.4,88,265.7,118.14,93.23,30.45,189.38,51.76,286.55,64.87,11.3,1.52,22.61,2.93,33.93,4.24.16.02.16-.23,0-.25-97.1-11.22-193.33-30.4-286.95-58.6-92.98-28-183.37-64.9-268.63-111.44s-157.21-97.17-226.04-158.71c-65.72-58.75-124.78-125.05-174.77-197.68-49.88-72.46-90.67-151.27-119.62-234.39-3.58-10.28-6.97-20.63-10.19-31.03-.05-.15-.29-.09-.24.07h0Z"/>
          <path class="cls-49" d="m-105.37,523.5c26.48,84.28,65.27,164.42,113.79,238.2,48.4,73.61,106.29,140.88,171.05,200.56,66.95,61.71,141.28,115.06,220.59,159.73,85.41,48.11,176.3,86.21,269.92,115.13,94.02,29.05,190.79,48.91,288.46,60.69,12.17,1.47,24.36,2.8,36.55,4.03.16.02.16-.23,0-.25-98.21-9.87-195.68-27.63-290.67-54.56-94.28-26.73-186.11-62.48-272.84-108.2-81.55-42.98-158.4-94.78-227.94-155.34-66.63-58.03-126.62-123.82-177.4-196.16-50.35-71.73-91.59-149.95-120.83-232.61-3.67-10.37-7.14-20.8-10.43-31.29-.05-.15-.29-.09-.24.07h0Z"/>
          <path class="cls-35" d="m-114.87,544.23c26.79,84.15,66.12,164,115.29,237.31,49.19,73.35,108.01,140.14,173.71,199.13,67.77,60.85,142.88,113.14,222.87,156.63,86.73,47.14,178.87,84,273.61,111.57,95.18,27.7,192.98,46.09,291.53,56.48,12.41,1.31,24.83,2.48,37.26,3.55.16.01.16-.24,0-.25-99.08-8.47-197.55-24.75-293.69-50.28-95.69-25.41-189.06-60-277.36-104.87-82.27-41.81-159.93-92.56-230.32-152.29-67.09-56.94-127.63-121.75-178.97-193.25-51.42-71.61-93.55-150.01-123.3-233.06-3.65-10.18-7.1-20.43-10.38-30.73-.05-.15-.29-.09-.24.07h0Z"/>
          <path class="cls-27" d="m-124.37,564.97c27.13,84.09,67.03,163.72,116.88,236.61,49.87,72.92,109.46,139.07,175.9,197.24,68.59,60.06,144.5,111.36,225.2,153.71,88.1,46.23,181.57,81.87,277.49,108.09,96.41,26.36,195.3,43.29,294.81,52.28,12.61,1.14,25.24,2.14,37.87,3.04.16.01.16-.24,0-.25-100.02-7.07-199.56-21.86-296.92-46-96.85-24.02-191.53-57.32-281.21-101.2-83.06-40.64-161.62-90.36-232.93-149.3-67.84-56.08-129.16-120.19-181.21-191.2-52.14-71.13-94.9-149.24-125.06-232.18-3.72-10.24-7.24-20.55-10.59-30.91-.05-.15-.29-.09-.24.07h0Z"/>
          <path class="cls-62" d="m-133.87,585.7c27.43,83.95,67.85,163.3,118.32,235.71,50.48,72.44,110.75,137.92,177.83,195.27,69.55,59.46,146.42,109.91,228.03,151.22,89.76,45.43,184.86,79.91,282.27,104.79s197.58,40.32,298.02,47.84c12.52.94,25.06,1.75,37.59,2.45.16,0,.16-.24,0-.25-100.92-5.66-201.5-18.92-300.03-41.66-97.99-22.61-193.95-54.58-284.99-97.41-84.08-39.56-163.72-88.38-236.09-146.72-68.71-55.39-130.92-119.01-183.73-189.76-52.73-70.63-96-148.45-126.46-231.22-3.7-10.05-7.19-20.16-10.52-30.34-.05-.15-.29-.09-.24.07h0Z"/>
          <path class="cls-36" d="m-143.37,606.43c27.82,84.09,68.93,163.4,120.23,235.54,50.97,71.67,111.72,136.25,179.19,192.6,70.49,58.87,148.31,108.47,230.81,148.75,90.83,44.34,186.9,77.49,285.15,100.98,99.49,23.79,201.21,37.76,303.28,43.86,12.43.74,24.86,1.36,37.3,1.88.16,0,.16-.24,0-.25-102.19-4.25-204.16-16.06-304.21-37.5s-195.71-51.75-287.82-93.4c-85.08-38.47-165.79-86.41-239.23-144.14-69.34-54.51-132.24-117.43-185.68-187.65-53.35-70.09-97.2-147.55-128.03-230.13-3.78-10.13-7.36-20.33-10.75-30.6-.05-.15-.29-.09-.24.07h0Z"/>
          <path class="cls-8" d="m-152.87,627.17c28.15,84.02,69.81,163.11,121.75,234.83,51.97,71.75,113.94,136.1,182.66,191.93,70.83,57.55,148.83,105.77,231.36,144.65,92.62,43.65,190.49,75.67,290.39,97.83,100.51,22.29,203.1,34.69,305.9,39.32,12.6.57,25.21,1.01,37.82,1.35.16,0,.16-.25,0-.25-102.9-2.8-205.7-13.03-306.74-32.94-100.42-19.79-199.1-49.16-293-90.02-84.9-36.94-165.62-83.27-239.28-139.44-70.18-53.51-133.98-115.59-188.3-185.19-54.77-70.16-99.8-148.06-131.35-231.36-3.86-10.19-7.5-20.45-10.96-30.78-.05-.15-.29-.09-.24.07h0Z"/>
          <path class="cls-7" d="m-162.37,647.9c28.54,84.16,70.87,163.22,123.63,234.66,52.43,70.99,114.84,134.45,183.92,189.3,72.24,57.36,151.73,105,235.74,143.02,93.84,42.47,192.81,73.04,293.65,93.68,101.48,20.77,204.88,31.59,308.38,34.76,12.82.39,25.64.66,38.46.83.16,0,.16-.25,0-.25-103.92-1.35-207.85-10.05-310.18-28.53-100.63-18.17-199.7-45.86-294.2-85.1-86.53-35.93-168.92-81.56-244.17-137.45-71.06-52.79-135.77-114.34-190.9-183.66-55.37-69.62-100.98-147.17-132.89-230.28-3.94-10.27-7.67-20.62-11.2-31.04-.05-.15-.29-.09-.24.07h0Z"/>
          <path class="cls-11" d="m-171.87,668.64c28.85,84.09,71.72,162.92,125.1,233.94,53.43,71.08,117.05,134.31,187.37,188.66,72.81,56.28,152.77,102.7,237.1,139.42,95.08,41.4,195.18,70.64,297.01,89.85,102.85,19.4,207.49,28.69,312.09,30.39,13,.21,26,.3,39,.28.16,0,.16-.25,0-.25-104.66.11-209.43-6.98-312.76-23.92-101.94-16.71-202.47-43.06-298.51-81.28-87.21-34.71-170.4-79.26-246.5-134.29-72.03-52.09-137.72-113.17-193.72-182.26-56.03-69.13-102.23-146.4-134.54-229.39-4.02-10.33-7.81-20.74-11.41-31.22-.05-.15-.29-.09-.24.07h0Z"/>
          <path class="cls-28" d="m-181.37,689.37c29.17,84.02,72.56,162.63,126.55,233.23,53.68,70.2,117.5,132.47,187.89,185.81,73.58,55.75,154.29,101.46,239.34,137.25,97.25,40.93,199.55,69.15,303.46,87.04,103.9,17.88,209.41,25.59,314.79,25.8,13.18.03,26.37-.07,39.55-.27.16,0,.16-.25,0-.25-105.4,1.58-211.02-3.91-315.36-19.3s-204.57-40.04-301.87-77.04c-88.25-33.56-172.57-77.15-249.81-131.54-72.73-51.22-139.2-111.58-195.93-180.16-56.93-68.83-103.93-146.05-136.74-229.22-4.1-10.39-7.96-20.86-11.62-31.41-.05-.15-.29-.09-.24.07h0Z"/>
          <path class="cls-53" d="m-190.87,710.1c29.35,83.58,73,161.65,127.25,231.6,54.71,70.54,119.84,132.81,191.6,185.82,74.51,55.05,156.14,99.79,242,134.46,98.56,39.8,202.07,66.58,307.01,82.95,104.95,16.37,211.35,22.46,317.51,21.19,13.37-.16,26.75-.45,40.11-.83.16,0,.16-.25,0-.25-105.43,3.04-211.17-.78-315.81-14.38-104.63-13.6-208.17-37.05-307.43-73.08-89.43-32.46-174.99-75.18-253.48-129.05-73.59-50.51-140.94-110.37-198.46-178.68-57.7-68.53-105.35-145.69-138.55-228.99-4.06-10.19-7.89-20.46-11.52-30.8-.05-.15-.29-.09-.24.07h0Z"/>
          <path class="cls-1" d="m-200.37,730.84c29.76,83.8,74.12,161.89,129.2,231.62,55.59,70.36,121.72,132.16,194.46,184.49,75.33,54.19,157.71,97.88,244.2,131.37,99.88,38.68,204.61,64.02,310.59,78.86,106,14.84,213.3,19.34,320.25,16.56,13.57-.35,27.13-.83,40.69-1.4.16,0,.16-.26,0-.25-106.56,4.52-213.53,2.28-319.54-9.89-105.99-12.16-211.04-34.3-311.87-69.4-89.7-31.22-175.65-72.76-254.66-125.58-74.27-49.65-142.38-108.81-200.61-176.62-58.59-68.23-107.04-145.35-140.73-228.83-4.13-10.24-8.03-20.58-11.73-30.99-.05-.15-.3-.09-.24.07h0Z"/>
          <path class="cls-6" d="m-209.87,751.57c30.17,84.03,75.23,162.14,131.15,231.64,56.06,69.67,122.65,130.66,195.75,182.07,76.25,53.63,159.52,96.52,246.84,129.01,100.84,37.51,206.37,61.46,313.03,74.88,108.17,13.61,217.52,16.53,326.4,12.15,13.38-.54,26.75-1.19,40.12-1.94.16,0,.16-.26,0-.25-107.71,6.03-215.92,5.37-323.32-5.34-106.61-10.63-212.46-31.24-314.23-65-91.02-30.19-178.35-70.95-258.71-123.39-74.88-48.87-143.68-107.39-202.55-174.77-59.19-67.75-108.22-144.57-142.29-227.94-4.21-10.3-8.18-20.7-11.94-31.17-.05-.15-.3-.09-.24.07h0Z"/>
          <path class="cls-37" d="m-219.37,772.31c30.54,84.17,76.25,162.22,132.92,231.44,57.05,69.69,124.82,130.37,199.07,181.21,77.21,52.87,161.4,94.76,249.52,126.06,102.26,36.32,209.08,58.77,316.86,70.6,108.93,11.96,218.88,13.2,328.24,7.31,13.53-.73,27.06-1.57,40.57-2.51.16-.01.16-.26,0-.25-108.16,7.5-216.91,8.48-325.01-.57-107.69-9.01-214.77-28.06-317.94-60.55-91.54-28.82-179.55-68.3-260.71-119.64-76.38-48.32-146.66-106.64-206.8-174.18-60.21-67.63-110.1-144.64-144.67-228.45-4.16-10.1-8.09-20.28-11.82-30.55-.05-.15-.3-.09-.24.07h0Z"/>
          <path class="cls-56" d="m-228.87,793.04c30.84,84.08,77.02,161.93,134.24,230.72,57.86,69.56,126.53,129.87,201.69,180.11s163.38,93.32,252.4,123.58c103.6,35.22,211.67,56.22,320.51,66.52,110.02,10.41,220.9,10.02,331.1,2.6,13.73-.92,27.45-1.96,41.16-3.1.16-.01.16-.26,0-.25-108.95,9-218.58,11.61-327.7,4.13-109.1-7.48-217.76-25.11-322.6-56.58-92.46-27.76-181.46-66.37-263.65-117.13-76.98-47.55-147.92-105.25-208.7-172.37-60.8-67.14-111.24-143.88-146.18-227.57-4.24-10.15-8.23-20.4-12.02-30.73-.05-.15-.3-.09-.24.07h0Z"/>
          <path class="cls-5" d="m-238.37,813.77c31.25,84.31,78.13,162.17,136.15,230.74,58.72,69.39,128.39,129.24,204.49,178.82,78.92,51.42,164.73,91.43,254.26,120.53,105.02,34.13,214.37,53.72,324.34,62.49,111.57,8.9,223.83,6.81,335.32-2.24,13.49-1.09,26.96-2.3,40.43-3.59.16-.02.16-.27,0-.25-109.81,10.51-220.37,14.75-330.58,8.83-110.2-5.91-220.1-22.06-326.33-52.34-93.03-26.52-182.74-64.02-265.71-113.87-77.93-46.83-149.89-104-211.58-170.87-61.23-66.37-112.16-142.45-147.58-225.63-4.59-10.79-8.9-21.69-12.98-32.68-.06-.15-.3-.08-.24.07h0Z"/>
          <path class="cls-14" d="m-247.87,834.51c31.65,84.54,79.23,162.41,138.06,230.76,59.37,68.97,129.74,128.2,206.45,177.01,79.86,50.81,166.56,89.97,256.9,118.04,106.44,33.06,217.1,51.22,328.21,58.45,112.73,7.34,225.99,3.59,338.39-7.02,13.64-1.29,27.27-2.68,40.89-4.17.16-.02.16-.27,0-.25-110.67,12.03-222.17,17.9-333.48,13.57-111.3-4.34-222.47-18.99-330.09-48.09-93.91-25.4-184.58-61.95-268.59-111.14-78.55-46-151.22-102.49-213.6-168.88-62.08-66.07-113.79-142.09-149.7-225.46-4.67-10.85-9.06-21.81-13.2-32.88-.06-.15-.3-.08-.24.07h0Z"/>
          <path class="cls-42" d="m-257.36,855.24c31.94,84.45,79.97,162.11,139.31,230.04,60.16,68.86,131.42,127.74,209.02,175.95,80.85,50.23,168.48,88.58,259.69,115.61,107.84,31.96,219.75,48.67,331.96,54.36,113.85,5.78,228.07.36,341.34-11.82,13.84-1.49,27.67-3.08,41.49-4.76.16-.02.16-.27,0-.25-111.49,13.56-223.89,21.09-336.24,18.33-112.36-2.76-224.75-15.86-333.74-43.76-94.88-24.29-186.63-59.91-271.75-108.5-79.44-45.36-153.05-101.4-216.26-167.63s-114.87-141.32-151.14-224.57c-4.75-10.91-9.21-21.94-13.42-33.07-.06-.15-.3-.08-.24.07h0Z"/>
          <path class="cls-15" d="m-266.86,875.98c32.34,84.68,81.07,162.35,141.2,230.05,61.02,68.7,133.26,127.12,211.78,174.69,81.51,49.39,169.75,86.74,261.41,112.64,109.29,30.88,222.53,46.17,335.89,50.32,115.03,4.2,230.26-2.89,344.47-16.65,14-1.69,27.98-3.48,41.96-5.36.16-.02.16-.27,0-.25-112.38,15.1-225.73,24.27-339.19,23.11-113.48-1.17-227.15-12.78-337.57-39.49-95.74-23.15-188.45-57.87-274.59-105.81-80.34-44.71-154.85-100.34-218.91-166.39-63.15-65.11-115.92-140.56-152.54-223.67-4.83-10.97-9.37-22.07-13.65-33.27-.06-.15-.3-.08-.24.07h0Z"/>
          <path class="cls-52" d="m-276.36,896.71c32.75,84.9,82.15,162.61,143.07,230.07,61.89,68.53,135.09,126.53,214.53,173.44,82.92,48.96,172.54,85.53,265.51,110.36,110.82,29.59,225.42,43.24,339.96,45.67,116.22,2.46,232.47-6.45,347.6-21.9,13.33-1.79,26.66-3.67,39.97-5.63.16-.02.09-.26-.07-.24-114.1,16.77-229.25,27.64-344.65,27.92-114.19.27-228.72-9.94-340.14-35.49-96.17-22.05-189.4-55.75-276.19-102.85-80.92-43.91-156.12-98.87-220.85-164.45-63.97-64.81-117.51-140.19-154.63-223.5-4.92-11.03-9.53-22.19-13.87-33.46-.06-.15-.3-.08-.24.07h0Z"/>
        </g>
      </g>
    </g>
  </g>
</svg>