<svg xmlns="http://www.w3.org/2000/svg" xmlns:xlink="http://www.w3.org/1999/xlink" width="1080" zoomAndPan="magnify" viewBox="0 0 810 262.499992" height="350" preserveAspectRatio="xMidYMid meet" version="1.0"><defs><g/><clipPath id="b4bf1478d5"><path d="M 442.023438 72.605469 L 527 72.605469 L 527 189.382812 L 442.023438 189.382812 Z M 442.023438 72.605469 " clip-rule="nonzero"/></clipPath></defs><g fill="#ffffff" fill-opacity="1"><g transform="translate(80.7361, 186.110792)"><g><path d="M 57.472656 -88.09375 L 43.496094 -88.09375 C 18.84375 -88.09375 1.570312 -71.917969 1.570312 -47.265625 L 1.570312 0 L 40.199219 0 L 40.199219 -48.835938 C 40.199219 -50.25 40.984375 -51.191406 42.554688 -51.191406 L 57.472656 -51.191406 Z M 57.472656 -88.09375 "/></g></g></g><g fill="#ffffff" fill-opacity="1"><g transform="translate(139.621154, 186.110792)"><g><path d="M 46.949219 -90.761719 C 21.828125 -90.761719 1.570312 -70.503906 1.570312 -45.378906 C 1.570312 -20.414062 21.828125 0 46.949219 0 L 52.445312 0 L 52.445312 -37.53125 L 46.949219 -37.53125 C 42.554688 -37.53125 39.101562 -41.140625 39.101562 -45.378906 C 39.101562 -49.621094 42.554688 -53.230469 46.949219 -53.230469 C 51.191406 -53.230469 54.644531 -49.621094 54.644531 -45.378906 L 54.644531 0 L 92.332031 0 L 92.332031 -45.378906 C 92.332031 -70.503906 71.917969 -90.761719 46.949219 -90.761719 Z M 46.949219 -90.761719 "/></g></g></g><g fill="#ffffff" fill-opacity="1"><g transform="translate(233.366173, 186.110792)"><g><path d="M 42.710938 0 L 66.894531 0 L 66.894531 -36.585938 L 42.082031 -36.585938 C 40.984375 -36.585938 40.042969 -37.53125 40.042969 -38.628906 L 40.042969 -51.660156 L 66.894531 -51.660156 L 66.894531 -88.09375 L 40.042969 -88.09375 L 40.042969 -110.074219 L 1.414062 -110.074219 L 1.414062 -40.355469 C 1.414062 -13.347656 18.371094 0 42.710938 0 Z M 42.710938 0 "/></g></g></g><g fill="#ffffff" fill-opacity="1"><g transform="translate(301.986901, 186.110792)"><g><path d="M 51.503906 -39.726562 L 83.222656 -39.726562 C 92.644531 -46.164062 92.019531 -63.753906 87.148438 -72.390625 C 78.355469 -87.621094 61.867188 -90.761719 47.265625 -90.761719 C 19 -90.289062 1.414062 -70.191406 1.414062 -45.378906 C 1.414062 -20.414062 21.828125 0 46.792969 0 L 91.234375 0 L 91.234375 -37.6875 L 46.792969 -37.6875 C 35.644531 -37.6875 36.273438 -54.175781 47.109375 -53.859375 C 56.84375 -53.703125 58.414062 -43.496094 51.503906 -39.726562 Z M 51.503906 -39.726562 "/></g></g></g><g fill="#ffffff" fill-opacity="1"><g transform="translate(394.63274, 186.110792)"><g><path d="M 1.570312 -110.074219 L 1.570312 0 L 40.199219 0 L 40.199219 -110.074219 Z M 1.570312 -110.074219 "/></g></g></g><g fill="#ffffff" fill-opacity="1"><g transform="translate(436.405318, 186.110792)"><g/></g></g><g fill="#ffffff" fill-opacity="1"><g transform="translate(468.281758, 186.110792)"><g/></g></g><g fill="#ffffff" fill-opacity="1"><g transform="translate(500.158198, 186.110792)"><g/></g></g><g fill="#ffffff" fill-opacity="1"><g transform="translate(532.046271, 186.110792)"><g><path d="M 48.050781 -90.605469 C 22.296875 -90.605469 1.414062 -69.71875 1.414062 -43.96875 C 1.414062 -18.214844 22.296875 3.140625 48.050781 3.140625 C 73.332031 3.140625 94.058594 -17.585938 94.6875 -42.867188 L 55.902344 -42.867188 C 55.429688 -38.941406 52.132812 -35.960938 48.050781 -35.960938 C 43.652344 -35.960938 40.042969 -39.570312 40.042969 -43.96875 C 40.042969 -48.363281 43.652344 -51.976562 48.050781 -51.976562 C 52.132812 -51.976562 55.429688 -48.992188 55.902344 -45.066406 L 94.6875 -45.066406 C 94.058594 -70.347656 73.332031 -90.605469 48.050781 -90.605469 Z M 48.050781 -90.605469 "/></g></g></g><g fill="#ffffff" fill-opacity="1"><g transform="translate(628.146688, 186.110792)"><g><path d="M 1.570312 0 L 40.199219 0 L 40.199219 -34.859375 L 61.082031 0 L 101.753906 0 L 74.117188 -44.125 L 98.769531 -88.09375 L 58.101562 -88.09375 L 40.199219 -54.488281 L 40.199219 -110.074219 L 1.570312 -110.074219 Z M 1.570312 0 "/></g></g></g><g clip-path="url(#b4bf1478d5)"><path fill="#38b6ff" d="M 484.503906 72.605469 C 466.859375 72.605469 452.652344 86.8125 452.652344 104.457031 L 452.652344 118.898438 C 446.0625 126.382812 442.035156 136.171875 442.035156 146.925781 C 442.035156 170.378906 461.050781 189.394531 484.503906 189.394531 C 507.957031 189.394531 526.972656 170.378906 526.972656 146.925781 C 526.972656 136.171875 522.945312 126.382812 516.355469 118.898438 L 516.355469 104.457031 C 516.355469 86.8125 502.148438 72.605469 484.503906 72.605469 Z M 484.503906 83.222656 C 496.585938 83.222656 505.738281 92.375 505.738281 104.457031 L 505.738281 110.191406 C 499.484375 106.566406 492.25 104.457031 484.503906 104.457031 C 476.757812 104.457031 469.523438 106.566406 463.269531 110.191406 L 463.269531 104.457031 C 463.269531 92.375 472.421875 83.222656 484.503906 83.222656 Z M 484.722656 131.011719 C 490.460938 131.125 495.121094 135.847656 495.121094 141.617188 C 495.121094 145.519531 492.964844 148.902344 489.8125 150.75 L 489.8125 162.851562 C 489.8125 165.78125 487.433594 168.160156 484.503906 168.160156 C 481.574219 168.160156 479.195312 165.78125 479.195312 162.851562 L 479.195312 150.75 C 475.339844 148.496094 472.976562 143.9375 474.21875 138.953125 C 475.167969 135.144531 478.363281 132.066406 482.203125 131.25 C 483.054688 131.066406 483.902344 130.992188 484.722656 131.011719 Z M 484.722656 131.011719 " fill-opacity="1" fill-rule="nonzero"/></g></svg>