<svg xmlns="http://www.w3.org/2000/svg" xmlns:xlink="http://www.w3.org/1999/xlink" width="1080" zoomAndPan="magnify" viewBox="0 0 810 809.999993" height="1080" preserveAspectRatio="xMidYMid meet" version="1.0"><rect x="-81" width="972" fill="#ffffff" y="-80.999999" height="971.999992" fill-opacity="1"/><rect x="-81" width="972" fill="#ffffff" y="-80.999999" height="971.999992" fill-opacity="1"/><path fill="#ffffff" d="M 810 405 C 810 628.675781 628.675781 810 405 810 C 181.324219 810 0 628.675781 0 405 C 0 181.324219 181.324219 0 405 0 C 628.675781 0 810 181.324219 810 405 " fill-opacity="1" fill-rule="nonzero"/><path fill="#004ec3" d="M 418.914062 544.710938 C 457.699219 540.257812 477.097656 518.527344 477.097656 479.519531 C 477.097656 463.546875 473.152344 451.265625 465.261719 442.664062 C 457.367188 434.066406 441.917969 426.996094 418.914062 421.472656 Z M 391.957031 376.320312 L 391.957031 265.058594 C 356.527344 270.742188 338.808594 289.554688 338.808594 321.492188 C 338.808594 338.699219 343.726562 351.210938 353.546875 359.046875 C 363.367188 366.878906 376.175781 372.636719 391.957031 376.320312 Z M 418.914062 381.390625 C 460.554688 389.222656 488.855469 400.628906 503.800781 415.59375 C 518.742188 430.570312 526.214844 450.953125 526.214844 476.753906 C 526.214844 503.628906 516.730469 527.011719 497.75 546.902344 C 478.773438 566.792969 452.5 577.574219 418.914062 579.265625 L 418.914062 602.597656 C 418.914062 609.429688 413.371094 614.96875 406.539062 614.96875 L 404.335938 614.96875 C 397.5 614.96875 391.957031 609.429688 391.957031 602.597656 L 391.957031 579.726562 C 329.164062 573.390625 293.167969 544.546875 283.980469 493.195312 C 282.621094 485.59375 288.4375 478.601562 296.164062 478.601562 L 320.265625 478.601562 C 326.203125 478.601562 331.316406 482.8125 332.417969 488.640625 C 338.515625 520.855469 358.363281 539.546875 391.957031 544.710938 L 391.957031 415.941406 C 323.949219 403.5 289.941406 373.175781 289.941406 324.949219 C 289.941406 297.769531 299.136719 275.886719 317.527344 259.300781 C 335.914062 242.714844 360.722656 233.121094 391.957031 230.503906 L 391.957031 207.40625 C 391.957031 200.570312 397.5 195.03125 404.335938 195.03125 L 406.539062 195.03125 C 413.371094 195.03125 418.914062 200.570312 418.914062 207.40625 L 418.914062 230.503906 C 472.488281 234.222656 504.414062 256.996094 514.699219 298.828125 C 516.617188 306.609375 510.6875 314.121094 502.667969 314.121094 L 478.8125 314.121094 C 473.035156 314.121094 468.054688 310.117188 466.742188 304.484375 C 461.496094 281.894531 445.558594 268.90625 418.914062 265.523438 L 418.914062 381.390625 " fill-opacity="1" fill-rule="nonzero"/><path fill="#004ec3" d="M 687.753906 285.550781 C 672.292969 249.003906 650.171875 216.1875 621.992188 188.007812 C 593.8125 159.828125 560.996094 137.707031 524.449219 122.246094 C 503.625 113.4375 482.082031 107.019531 460.015625 103.035156 C 452.53125 101.679688 445.640625 107.445312 445.640625 115.058594 C 445.640625 120.976562 449.890625 126.019531 455.707031 127.074219 C 587.359375 151.035156 687.488281 266.539062 687.488281 405 C 687.488281 543.460938 587.359375 658.964844 455.707031 682.925781 C 449.890625 683.980469 445.640625 689.023438 445.640625 694.941406 C 445.640625 702.546875 452.53125 708.320312 460.015625 706.964844 C 482.082031 702.980469 503.625 696.5625 524.449219 687.753906 C 560.996094 672.292969 593.8125 650.171875 621.992188 621.992188 C 650.171875 593.8125 672.292969 560.996094 687.753906 524.449219 C 703.757812 486.613281 711.871094 446.425781 711.871094 405 C 711.871094 363.574219 703.757812 323.386719 687.753906 285.550781 " fill-opacity="1" fill-rule="nonzero"/><path fill="#004ec3" d="M 122.511719 405 C 122.511719 266.539062 222.640625 151.035156 354.292969 127.074219 C 360.113281 126.019531 364.359375 120.976562 364.359375 115.058594 C 364.359375 107.445312 357.46875 101.679688 349.984375 103.035156 C 327.917969 107.019531 306.375 113.4375 285.550781 122.246094 C 249.003906 137.707031 216.1875 159.828125 188.007812 188.007812 C 159.828125 216.1875 137.707031 249.003906 122.246094 285.550781 C 106.242188 323.386719 98.128906 363.574219 98.128906 405 C 98.128906 446.425781 106.242188 486.613281 122.246094 524.449219 C 137.707031 560.996094 159.828125 593.8125 188.007812 621.992188 C 216.1875 650.171875 249.003906 672.292969 285.550781 687.753906 C 306.375 696.5625 327.917969 702.980469 349.984375 706.964844 C 357.46875 708.320312 364.359375 702.546875 364.359375 694.941406 C 364.359375 689.023438 360.113281 683.980469 354.292969 682.925781 C 222.640625 658.964844 122.511719 543.460938 122.511719 405 " fill-opacity="1" fill-rule="nonzero"/></svg>